<svg width="161" height="32" viewBox="0 0 161 32" fill="none" xmlns="http://www.w3.org/2000/svg">
<path d="M46.0513 0.415998H50.5633V31.856H48.3073C43.5073 31.856 38.4193 30.56 34.3393 28.352C31.1233 26.624 28.0993 24.128 25.6993 21.344C25.1713 21.92 24.5473 22.64 24.0193 23.168C21.3313 25.856 18.1153 27.968 14.6113 29.504C11.0113 31.088 7.02725 31.856 3.04325 31.856H0.83525V0.415998H5.34725V27.152C18.0673 25.952 28.1953 15.296 28.1953 2.192V0.415998H32.7073V2.192C32.7073 6.176 31.9873 10.112 30.3553 13.76C29.7793 15.056 29.2513 16.208 28.4833 17.552C32.7553 23.12 38.9953 26.624 46.0513 27.152V0.415998ZM80.3116 0.559999C85.1116 0.559999 88.8076 4.448 88.8076 9.056V23.36C88.8076 27.968 85.1116 31.856 80.3116 31.856H65.4316C60.6796 31.856 56.9356 27.968 56.9356 23.36V9.056C56.9356 4.448 60.6796 0.559999 65.4316 0.559999H80.3116ZM84.2956 23.36V9.056C84.2956 6.944 82.5196 5.12 80.3116 5.12H65.4316C63.2716 5.12 61.4476 6.944 61.4476 9.056V23.36C61.4476 25.52 63.2716 27.296 65.4316 27.296H80.3116C82.5196 27.296 84.2956 25.52 84.2956 23.36ZM122.188 24.368C123.148 26.336 123.628 28.928 123.628 31.856H119.068C119.068 24.896 113.548 19.904 106.252 19.664C101.692 20.096 98.5715 20.96 98.5715 23.408V31.856H94.0595V0.607998H112.828C118.156 0.607998 122.476 4.736 122.476 9.632C122.476 13.52 120.556 16.352 117.1 17.84L116.812 17.984C116.668 18.08 116.716 18.032 116.764 18.032H116.716C117.244 18.368 117.772 18.8 118.3 19.28C119.98 20.72 121.276 22.448 122.188 24.368ZM98.9075 16.4C101.404 15.44 104.284 15.2 107.356 14.96C113.884 14.528 117.964 13.952 117.964 9.632C117.964 7.184 115.66 5.168 112.828 5.168H98.5715V16.592C98.6195 16.592 98.6195 16.544 98.6675 16.544L98.9075 16.4ZM155.437 13.424C154.477 14.336 153.181 15.2 151.981 15.872C153.229 16.64 154.477 17.552 155.533 18.608C158.845 21.92 160.621 26.624 160.621 31.856H156.061C156.061 24.224 150.253 18.032 143.149 18.032H133.213V31.856H128.701V0.607998H133.213V13.424H143.149C150.493 13.424 156.061 7.952 156.061 0.607998H160.621C160.621 5.792 158.653 10.448 155.437 13.424Z" fill="#D9D9D9"/>
</svg>
