<?xml version="1.0" encoding="utf-8"?>
<!-- Generator: Adobe Illustrator 25.0.0, SVG Export Plug-In . SVG Version: 6.00 Build 0)  -->
<svg version="1.1" xmlns="http://www.w3.org/2000/svg" xmlns:xlink="http://www.w3.org/1999/xlink" x="0px" y="0px"
	 viewBox="0 0 156.5 16.5" style="enable-background:new 0 0 156.5 16.5;" xml:space="preserve">
<style type="text/css">
	.st0{fill:#020202;}
	.st1{fill:none;stroke:#020202;stroke-width:0.2;stroke-miterlimit:10;}
	.st2{fill:#7F7F7F;}
	.st3{fill:#FFFFFF;}
	.st4{fill:none;stroke:#7F7F7F;stroke-width:0.2;stroke-miterlimit:10;}
	.st5{fill:none;stroke:#7F7F7F;stroke-width:0.2;stroke-miterlimit:10;stroke-dasharray:1.1971,1.1971;}
	.st6{fill:none;stroke:#7F7F7F;stroke-width:0.2;stroke-miterlimit:10;stroke-dasharray:1.2216,1.2216;}
	.st7{fill:none;stroke:#7F7F7F;stroke-width:0.2;stroke-miterlimit:10;stroke-dasharray:1.2;}
	.st8{fill:none;stroke:#7F7F7F;stroke-width:0.2;stroke-miterlimit:10;stroke-dasharray:0.7856,0.7856;}
	.st9{fill:none;stroke:#7F7F7F;stroke-width:0.2;stroke-miterlimit:10;stroke-dasharray:0.7823,0.7823;}
	.st10{fill:#636363;}
	.st11{fill:#494949;}
	.st12{fill:#2B2B2B;}
	.st13{fill:#FDFDFD;}
	.st14{fill:#103332;}
	.st15{fill:#206664;}
	.st16{fill:#309996;}
	.st17{fill:#40CCC8;}
	.st18{fill:#4DFFFF;}
	.st19{fill:#FF4D00;}
	.st20{fill:#330D00;}
	.st21{fill:#661A00;}
	.st22{fill:#992800;}
	.st23{fill:#CC3500;}
	.st24{fill:#FFD9CC;}
	.st25{fill:#FFB399;}
	.st26{fill:#FF8E66;}
	.st27{fill:#FF6833;}
	.st28{fill:#DCFFFE;}
	.st29{fill:#B9FFFD;}
	.st30{fill:#96FFFC;}
	.st31{fill:#73FFFB;}
	.st32{opacity:0.9;clip-path:url(#SVGID_8_);}
	.st33{fill:url(#SVGID_10_);}
	.st34{fill:url(#SVGID_11_);}
	.st35{fill:url(#SVGID_12_);}
	.st36{fill:url(#SVGID_13_);}
	.st37{enable-background:new    ;}
	.st38{fill:#1A1A1A;}
	.st39{fill:#1D1D1D;}
	.st40{clip-path:url(#SVGID_15_);enable-background:new    ;}
	.st41{fill:#202020;}
	.st42{clip-path:url(#SVGID_17_);enable-background:new    ;}
	.st43{clip-path:url(#SVGID_19_);enable-background:new    ;}
	.st44{clip-path:url(#SVGID_21_);enable-background:new    ;}
	.st45{fill:#343434;}
	.st46{clip-path:url(#SVGID_23_);}
	.st47{clip-path:url(#SVGID_25_);}
	.st48{clip-path:url(#SVGID_29_);enable-background:new    ;}
	.st49{clip-path:url(#SVGID_31_);}
	.st50{clip-path:url(#SVGID_35_);enable-background:new    ;}
	.st51{clip-path:url(#SVGID_37_);enable-background:new    ;}
	.st52{clip-path:url(#SVGID_39_);}
	.st53{clip-path:url(#SVGID_41_);}
	.st54{clip-path:url(#SVGID_45_);}
	.st55{fill:none;stroke:url(#SVGID_48_);stroke-width:5.000000e-02;}
	.st56{fill:none;stroke:url(#SVGID_49_);stroke-width:5.000000e-02;}
	.st57{fill:none;stroke:url(#SVGID_50_);stroke-width:5.000000e-02;}
	.st58{fill:none;stroke:url(#SVGID_51_);stroke-width:5.000000e-02;}
	.st59{fill:none;stroke:#494949;stroke-width:0.1;stroke-miterlimit:10;}
	.st60{fill:none;stroke:#1D1D1B;stroke-width:5.365854e-02;}
	.st61{fill:url(#SVGID_52_);}
	.st62{fill:url(#SVGID_53_);}
	.st63{fill:url(#SVGID_54_);}
	.st64{fill:url(#SVGID_55_);}
	.st65{fill:url(#SVGID_56_);}
	.st66{fill:url(#SVGID_57_);}
	.st67{clip-path:url(#SVGID_61_);fill:#020202;}
	.st68{fill:url(#SVGID_62_);}
	.st69{opacity:0.9;clip-path:url(#SVGID_64_);}
	.st70{fill:#9F9F9F;}
	.st71{fill:#BFBFBF;}
	.st72{fill:#DFDFDF;}
	.st73{display:none;}
</style>
<g id="Capa_1">
	<g>
		<path class="st3" d="M69.3,16.4H52.7v-1c0-1.8,0.8-3.7,2-5.2c1.5-1.7,3.3-2.7,5.2-2.7c2.8,0,4.7-0.5,5.9-1.5c1-0.8,1.4-2.2,1.5-4
			H52.6V0h16.6v1.7c0,1.2-0.2,2.3-0.5,3.2c-0.4,1.1-0.9,2-1.7,2.6c-1.5,1.3-3.8,2-7.2,2c-1.8,0-3.1,1.2-3.7,2
			c-0.8,0.9-1.3,1.9-1.5,2.9h14.5V16.4z"/>
		<path class="st3" d="M1.9,4.9v6.6c0,1.6,1.4,2.9,3,2.9h10v2h-10c-2.7,0-4.9-2.2-4.9-4.9V4.9C0,2.2,2.2,0,4.9,0h10v1.9h-10
			C3.3,1.9,1.9,3.3,1.9,4.9z"/>
		<path class="st3" d="M50.7,0v12.1c0,2.4-1.9,4.3-4.3,4.3h-8c-2.4,0-4.3-2-4.3-4.3V0H36v12.1c0,1.3,1.1,2.4,2.4,2.4h8
			c1.3,0,2.4-1.1,2.4-2.4V0H50.7z"/>
		<path class="st3" d="M119.4,7.1v9.3h-9.8c-2.7,0-4.9-2.1-4.9-4.8v-1.1h1.9v1.1c0,1.6,1.3,2.9,3,2.9h7.8V9h-26v2.5c0,1.6,1.4,3,3,3
			h9.8v1.9h-9.8c-2.7,0-4.9-2.2-4.9-4.9V4.9c0-2.7,2.2-4.9,4.9-4.9h9.8v1.9h-9.8c-1.6,0-3,1.3-3,3v2.2H119.4z M119.4,0v1.9h-9.8
			c-1.6,0-3,1.3-3,2.9V6h-1.9V4.8c0-2.6,2.2-4.8,4.9-4.8H119.4z"/>
		<path class="st3" d="M156.5,16.4h-2.1l-5.3-13.7c-0.2-0.4-0.6-0.7-1-0.7c-0.5,0-0.9,0.2-1.1,0.7l-6.3,13.8h-2.1l6.7-14.6
			c0.5-1.1,1.6-1.8,2.9-1.8s2.3,0.7,2.8,1.9L156.5,16.4z"/>
		<path class="st3" d="M81,15.1L73.4,2.8v13.6h-2V0h2.3l8.8,13.9c0.3,0.4,0.8,0.6,1.3,0.6c1,0,1.7-0.8,1.7-1.8V0h2v12.7
			c0,2.1-1.6,3.8-3.7,3.8C82.8,16.5,81.7,15.9,81,15.1L81,15.1z"/>
		<path class="st3" d="M123.6,2h8c1.6,0,3,1.2,3,2.6c0,2.4-1.8,2.9-5.8,3.3c-2.2,0.2-3.8,1-5,2.4c-0.1,0.1-0.1,0.2-0.2,0.2V2z
			 M137.2,16.4L137.2,16.4c0-0.1,0-0.1,0-0.2c0-0.1,0-0.1,0-0.2c0-0.9-0.2-1.8-0.5-2.7c0,0,0,0,0,0c-0.4-1.1-0.9-2.1-1.7-3
			c-0.4-0.5-1-1-1.5-1.3c0.1,0,0.2-0.1,0.3-0.1c1.8-0.8,2.7-2.2,2.7-4.2c0-2.5-2.2-4.6-5-4.6h-9.9v16.4h2c0-3.3,2.3-6.6,5.8-6.6
			c2.5,0,4.8,1.9,5.5,4.6c0.2,0.6,0.3,1.3,0.3,1.9H137.2z"/>
		<path class="st3" d="M19,2h8c1.6,0,3,1.2,3,2.6c0,2.4-1.8,2.9-5.8,3.3c-2.2,0.2-3.8,1-5,2.4c-0.1,0.1-0.1,0.2-0.2,0.2V2z
			 M32.5,16.4L32.5,16.4c0-0.1,0-0.1,0-0.2c0-0.1,0-0.1,0-0.2c0-0.9-0.2-1.8-0.5-2.7c0,0,0,0,0,0c-0.4-1.1-0.9-2.1-1.7-3
			c-0.4-0.5-1-1-1.5-1.3c0.1,0,0.2-0.1,0.3-0.1c1.8-0.8,2.7-2.2,2.7-4.2c0-2.5-2.2-4.6-5-4.6h-9.9v16.4h2c0-3.3,2.3-6.6,5.8-6.6
			c2.5,0,4.8,1.9,5.5,4.6c0.2,0.6,0.3,1.3,0.3,1.9H32.5z"/>
	</g>
</g>
<g id="Guías" class="st73">
</g>
</svg>
