<?xml version="1.0" encoding="utf-8"?>
<!-- Generator: Adobe Illustrator 25.0.0, SVG Export Plug-In . SVG Version: 6.00 Build 0)  -->
<svg version="1.1" id="Capa_1" xmlns="http://www.w3.org/2000/svg" xmlns:xlink="http://www.w3.org/1999/xlink" x="0px" y="0px"
	 viewBox="0 0 413.1 495.1" style="enable-background:new 0 0 413.1 495.1;" xml:space="preserve">
<style type="text/css">
	.st0{fill:#FFFFFF;}
</style>
<g>
	<path class="st0" d="M99,367.7c-29.1-21.3-41.9-49.2-31.9-84c9.5-33,33.6-50.1,68-53.9c0.1-1.6,0.2-3.4,0.2-5.2
		c0-33.4,0-66.9,0-100.3c0-30.9,0-61.9,0.1-92.8c0-3.9,0.3-8.1,1.4-11.8C140.3,8.3,151.2,0.4,163,0.1c1.2,0,2.3,0,3.5,0
		c71.9,0,143.7,0,215.6,0c7.4,0,14.2,1.6,20,6.2c6.9,5.5,10.4,12.7,11,21.5c0.1,1.5,0,3,0,4.5c0,143.5,0,287.1,0,430.6
		c0,3.3-0.2,6.7-0.9,9.9c-2.8,12.9-13.9,21.9-27.1,22.3c-1.5,0-3,0-4.5,0c-122.8,0-245.5,0-368.3,0c-1.2,0-2.3,0-3.5,0
		c-6.2-0.2-9.5-3.9-8.8-10c1.1-8.4,2.6-16.7,5.3-24.8c13.3-40.7,39.6-69.7,78.7-87C88.8,371.2,93.7,369.7,99,367.7z M275.3,478.9
		c1.4,0.1,2.7,0.2,4,0.2c34.3,0,68.5,0,102.8,0c1,0,2,0,3-0.1c5.9-0.5,10.3-4.2,11.6-10c0.5-2.2,0.4-4.6,0.4-6.9c0-143,0-286,0-429
		c0-0.8,0-1.7,0-2.5c-0.1-9.5-5-14.5-14.4-14.6c-6.3,0-12.6,0-19,0c-3.3,0-6.6,0-10,0c-0.6,1.7-1.1,3.1-1.6,4.5
		c-2.1,6.5-4.1,13-6.3,19.4c-1.7,5-4.2,6.8-9.6,6.9c-0.8,0-1.7,0-2.5,0c-39.7,0-79.5,0-119.2,0c-1.2,0-2.3,0-3.5,0
		c-4.7-0.2-7-1.8-8.6-6.2c-1.1-3.1-2-6.3-3.1-9.5c-1.7-5-3.3-10-5-15.2c-10.8,0-21.2-0.2-31.7,0.1c-6.3,0.2-10.9,5.4-11.4,11.7
		c-0.1,1.5-0.1,3-0.1,4.5c0,64.5,0,129,0,193.6c0,1.6,0,3.3,0,4.9c32,8.1,53.2,27.2,59.4,59.7c6.2,32.7-7.1,58.1-33.8,77.3
		c30,9.1,54,26,72.7,50.4c3.6-0.2,6.9-0.6,10.2-0.7c9.8-0.1,19.6-0.1,29.4,0c2.6,0,5.3,0.2,7.9,0.7c11.5,2.5,17.8,13.4,16.7,23.3
		c-1.1,9.7-9,19.3-22.2,19.4c-5.7,0.1-11.3,0-17,0c-1.1,0-2.1,0.3-3.3,0.5C272.7,467.5,274,473.1,275.3,478.9z M258.6,478.9
		c-7.7-48.9-51.1-97.6-114.7-100.4c-67.3-3-117.6,46.1-126.4,100.4C97.7,478.9,178,478.9,258.6,478.9z M138,362.3
		c30.8-0.1,58.2-24,58.2-58.3c0-32.3-25.3-58-58-58c-33.9,0-58.1,26.9-58.2,57.8C79.8,337,106.5,362.1,138,362.3z M216.2,30.7
		c38.9,0,77.4,0,115.9,0c1.5-4.8,3.6-9.3,4.3-14.2c-6.6-0.8-121.1-0.6-124.8,0.2C213.1,21.2,214.6,25.8,216.2,30.7z M298.1,439.1
		c-2-4.7-2.9-5.5-7.9-5.6c-9.3-0.1-18.6,0-27.8,0c-0.7,0-1.4,0.4-2.5,0.7c1.9,3.8,3.5,7.1,5.2,10.5c1,0.1,1.8,0.3,2.6,0.3
		c7.6,0,15.2,0.1,22.9,0C295.2,445,296.3,444.1,298.1,439.1z"/>
	<path class="st0" d="M196.5,220.6c-2.7-6.4-5.1-12.2-7.7-18.4c-3-1.1-6.4-2.5-9.8-3.7c-4.7-1.7-6.8-4.8-6.6-9.9
		c0.2-7.3,0-14.6,0.1-21.9c0-5.7,1.3-7.5,6.7-9.7c1.7-0.7,3.4-1.3,5.1-2c1.5-0.6,3.1-1.2,4.5-1.7c2.6-6.1,5-12.1,7.7-18.4
		c-1.4-3.1-2.8-6.6-4.4-10.1c-2-4.2-1.2-7.7,2-10.8c5.4-5.4,10.9-10.8,16.2-16.2c3.2-3.3,6.8-3.8,10.9-2c3.3,1.5,6.7,2.9,10,4.3
		c6-2.5,12-5,18.4-7.6c1.2-3,2.5-6.4,3.8-9.8c2-5.1,4.2-6.6,9.8-6.6c7.3,0,14.6,0.1,21.9,0c4.7-0.1,7.9,1.8,9.5,6.4
		c1.2,3.4,2.6,6.8,3.9,10.1c6.1,2.5,12.1,5,18.6,7.7c2.7-1.2,5.9-2.7,9.1-4.1c5.3-2.3,8-1.9,12.1,2.2c5.2,5.1,10.4,10.3,15.5,15.5
		c4,4,4.4,6.4,2.1,11.6c-1.4,3.2-2.8,6.4-4.3,9.7c1.4,3,2.9,6,4.1,9c1.2,2.9,2.2,5.9,3.4,9.1c3.3,1.3,6.7,2.6,10.1,3.8
		c4.7,1.6,6.8,5,6.8,9.9c-0.1,7.3,0,14.6,0,21.9c0,4.9-2.2,8.2-6.9,9.8c-3.3,1.1-6.5,2.4-9.7,3.6c-2.6,6.1-5,12.1-7.7,18.4
		c1.3,3.1,2.8,6.6,4.4,10c1.9,4.1,1.2,7.7-2,10.8c-5.5,5.3-10.9,10.7-16.2,16.2c-3.2,3.3-6.8,3.8-10.9,2c-3.3-1.5-6.7-2.9-9.9-4.4
		c-6.1,2.5-12.1,5-18.4,7.6c-1.3,3.2-2.8,6.7-4,10.2c-1.5,4.4-4.6,6.3-9.1,6.2c-7.6,0-15.3,0-22.9,0c-4.6,0-7.5-2.1-9.1-6.3
		c-1.3-3.4-2.6-6.8-3.9-10.1c-6.1-2.6-12.1-5-18.4-7.7c-2.9,1.3-6,2.7-9.2,4c-5.4,2.3-8.1,1.9-12.1-2.1c-5.1-5-10.1-10.1-15.2-15.1
		c-4.6-4.6-4.5-7.6-2.2-12.5C194,226.6,195.2,223.6,196.5,220.6z M267,92.1c-1.2,3-2.4,5.8-3.4,8.8c-1.2,3.6-3.7,5.8-7.3,6.8
		c-6.7,1.7-12.9,4.3-18.8,7.7c-3.3,1.9-6.5,2.1-10,0.5c-2.8-1.3-5.7-2.5-8.3-3.6c-3.7,3.5-7.1,6.8-10.6,10.1c1.4,3.1,2.6,6,3.9,8.8
		c1.5,3.3,1.4,6.4-0.5,9.5c-3.6,6-6.3,12.4-8,19.2c-0.9,3.5-3,5.8-6.4,7c-3,1-5.8,2.3-8.8,3.5c0,4.9,0,9.7,0,14.5
		c3.1,1.3,6,2.5,9,3.6c3.2,1.2,5.2,3.3,6.1,6.6c1.8,6.9,4.4,13.6,8.2,19.7c1.9,3.1,1.9,6.3,0.4,9.5c-1.3,2.9-2.6,5.7-3.8,8.6
		c3.5,3.5,6.8,6.9,10.2,10.4c2.7-1.2,5.4-2.2,7.9-3.5c3.9-1.9,7.5-1.8,11.3,0.5c5.6,3.3,11.5,5.8,17.9,7.4c3.8,0.9,6.5,3.1,7.7,7
		c1,3,2.3,5.8,3.4,8.6c5,0,9.6,0,14.4,0c1.1-2.9,2.3-5.6,3.3-8.4c1.3-3.8,3.6-6.2,7.6-7.1c6.7-1.6,12.9-4.2,18.8-7.8
		c3.2-2,6.5-2,10-0.4c2.8,1.3,5.8,2.5,8,3.5c3.7-3.4,7.1-6.5,10.8-9.9c-1.2-2.7-2.1-5.3-3.5-7.8c-2.2-4.1-1.6-7.7,0.5-11.7
		c2.8-5.4,5.4-11.1,7.1-16.9c1.4-4.7,3.9-7.5,8.3-8.9c2.6-0.9,5.2-2,7.9-3.1c-0.4-5,0.4-9.6-0.5-14.3c-3.1-1.2-5.9-2.5-8.9-3.5
		c-3.4-1.2-5.5-3.5-6.4-7c-1.6-6.6-4.2-12.9-7.8-18.8c-2.2-3.6-2.3-7.1-0.4-10.8c1.4-2.6,2.4-5.4,3.5-8.1
		c-3.5-3.5-6.8-6.8-10.2-10.1c-3,1.3-5.9,2.5-8.7,3.8c-3.3,1.5-6.5,1.6-9.5-0.3c-6.2-3.7-12.7-6.4-19.7-8.2
		c-3.3-0.8-5.5-2.9-6.6-6.1c-1.1-3.1-2.4-6.1-3.7-9.2C276.4,92.1,271.8,92.1,267,92.1z"/>
	<path class="st0" d="M332.4,349c-5.6-4.7-10.9-9.2-16.2-13.7c-1.9-1.6-3.7-3.3-5.6-4.9c-3.1-2.7-3-8.1-0.5-10.8
		c2.7-3.1,7.3-3.8,10.7-1.1c5.5,4.3,10.8,8.9,16.1,13.3c3.9,3.3,7.7,6.8,11.8,9.9c4.6,3.5,5.8,10-0.1,14.7c-8.7,7-17,14.3-25.6,21.4
		c-1.1,1-2.4,1.9-3.7,2.5c-3.3,1.7-7.1,0.8-9.4-2c-2.2-2.7-2.5-6.9-0.3-9.7c1.4-1.8,3.3-3.3,5.1-4.8
		C320.6,358.9,326.4,354,332.4,349z"/>
	<path class="st0" d="M247.4,348.9c5.4,4.5,10.6,8.9,15.7,13.3c2,1.7,4,3.5,6,5.2c3.1,2.5,3,8.1,0.7,10.9c-2.7,3.3-7,4-10.7,1.3
		c-3.5-2.5-6.7-5.4-10-8.2c-6-5-11.9-10.1-17.9-15.1c-5.6-4.7-5.6-9.8,0-14.5c8.9-7.5,17.8-15,26.6-22.5c2.3-1.9,4.7-3.1,7.7-2.3
		c5.9,1.6,8.1,8.5,4,13c-2.1,2.3-4.7,4.2-7.1,6.3C257.6,340.4,252.6,344.6,247.4,348.9z"/>
	<path class="st0" d="M306.5,317.3c-0.2,0.9-0.6,2.7-1.1,4.5c-5.3,19.9-10.6,39.7-16,59.6c-0.3,1.1-0.6,2.3-1,3.3
		c-1.6,3.8-4.9,5.7-8.7,4.9c-4.3-0.9-6.6-3.8-6.5-8.1c0.1-1.3,0.4-2.6,0.7-3.9c5.4-20.5,10.9-41,16.4-61.6c0.3-1,0.5-1.9,0.9-2.8
		c1.7-4,5-5.7,9.3-4.9C304.4,309.1,306.6,312.2,306.5,317.3z"/>
	<path class="st0" d="M274,229.8c-25.8,0.4-52-20.2-52.1-51.9c-0.1-31.8,26-52.3,52.3-52.3c27.2,0,52.2,22.3,52.1,52.5
		C326.1,207.9,301.2,230.3,274,229.8z M274.4,141.6c-16.7-0.8-36.6,12.6-36.5,36.2c0.1,23.9,20.1,36,35.6,36.2
		c19.2,0.2,36.7-15.4,36.8-36C310.4,157.1,293.1,141.2,274.4,141.6z"/>
</g>
</svg>
