<?xml version="1.0" encoding="utf-8"?>
<!-- Generator: Adobe Illustrator 25.0.0, SVG Export Plug-In . SVG Version: 6.00 Build 0)  -->
<svg version="1.1" id="Capa_1" xmlns="http://www.w3.org/2000/svg" xmlns:xlink="http://www.w3.org/1999/xlink" x="0px" y="0px"
	 viewBox="0 0 495.2 411.7" style="enable-background:new 0 0 495.2 411.7;" xml:space="preserve">
<style type="text/css">
	.st0{fill:#FFFFFF;}
</style>
<g>
	<path class="st0" d="M396.8,129.9c16.9,4.5,33.6,8.9,50.4,13.4c10.5,2.8,21.1,5.6,31.6,8.4c1.1,0.3,2.3,0.5,3.3,1
		c3.2,1.3,5.2,3.5,5.3,7.1c0.1,3.5-1.3,6.1-4.5,7.6c-1,0.5-2.1,0.9-3.4,1.4c0,19.1,0,38.3,0,57.6c3.1,1.8,6.2,3.7,9.4,5.4
		c4.4,2.3,6.3,5.7,6.3,10.8c-0.2,14.4-0.1,28.8-0.1,43.2c0,0.7,0,1.3,0,2c-0.5,7-6.9,10.3-12.8,6.5c-2.6-1.7-5-3.8-7.6-5.6
		c-1-0.8-2.2-1.5-3.5-2.4c-3.3,2.5-6.6,5-9.9,7.4c-2,1.5-4.2,2.7-6.9,2.2c-3.8-0.7-6.4-3.5-6.8-7.5c-0.2-1.5-0.1-3-0.1-4.5
		c0-13.8,0.1-27.5-0.1-41.3c-0.1-5.1,1.7-8.5,6.2-10.8c3.2-1.6,6.3-3.6,9.3-5.4c0-17.9,0-35.5,0-53.6c-6.4,1.7-12.4,3.3-18.7,5
		c0,2.1,0,3.9,0,5.7c0,19.6,0,39.1,0,58.7c0,1,0,2,0,3c-0.1,5.7-2.4,8.4-8.1,9.5c-10.7,2.1-21.4,4.1-32.3,6.2
		c-17.1,56.7-51.1,99.7-103.6,127.4c-41.1,21.6-84.9,28.2-130.5,20.2C74.2,391.4,4.6,311.1,0.2,215.6
		C-4.2,117.8,58.7,35.5,145.8,9.2C196.7-6.1,246.7-2.4,294.6,20.7C342.7,43.8,376.2,80.8,396.8,129.9z M257.1,239.5
		c1.1,0.4,2.2,0.8,3.3,1c15.4,2.9,30.8,6,46.3,8.7c9.4,1.7,18.9,3.2,28.5,4.2c10.9,1.1,21.8-0.2,32.6-2.1c19-3.4,38-7.1,57-10.7
		c1.2-0.2,2.4-0.8,3.5-1.2c0-19.2,0-38,0-57.2c-2,0.5-3.7,0.9-5.4,1.3c-25.1,6.7-50.1,13.3-75.2,20c-3.1,0.8-6.1,1-9.2,0.2
		c-16.7-4.6-33.5-9-50.3-13.5c-10.2-2.7-20.4-5.4-31-8.2C257.1,201.4,257.1,220.4,257.1,239.5z M122.9,103.1
		c-15.3,29.3-23.7,60.8-24.8,94.6c33.5,0,66.3,0,99.2,0c0.9-7.2,0.6-81.4-0.2-84.5c-12.5-1.2-24.9-2-37.1-3.7
		C147.7,107.9,135.6,105.4,122.9,103.1z M197.2,299.2c0.9-6.9,0.6-81.6-0.2-85.1c-11.4-0.8-95-0.5-98.8,0.5
		c-0.1,10.3,1.3,20.4,3.1,30.5c3.7,21.5,10.6,42,20.4,61.4c0.5,1,1.2,1.8,1.8,2.7C147.8,303,172.2,299.9,197.2,299.2z M64.4,332.5
		c7.4-3.6,14.2-7.2,21.1-10.2c7.1-3.1,14.4-5.7,21.9-8.6c-15.6-31.4-24.1-64.6-25.3-99.4c-8.9-0.9-62.3-0.5-65.9,0.4
		C18.6,259.4,34.6,298.6,64.4,332.5z M16.1,197.4c6.2,0.9,62.1,0.7,66-0.3c0.3-17.1,2.9-34.1,7.2-50.8c4.2-16.7,10.4-32.7,18-48.1
		c-7.6-3-14.9-5.6-22-8.7c-7.1-3.1-13.9-6.7-21-10.1C34.6,113.2,18.6,152.4,16.1,197.4z M446.3,160.8c0-0.3,0-0.7,0-1
		c-1.5-0.5-3-1-4.6-1.4c-31.9-8.5-63.9-16.9-95.8-25.5c-2.2-0.6-4.2-0.6-6.3,0c-5.6,1.6-11.2,3-16.8,4.5
		c-27.3,7.3-54.6,14.5-81.9,21.8c-0.8,0.2-1.5,0.7-2.4,1.2c0.5,0.4,0.7,0.5,0.8,0.6c33.5,8.9,67,17.9,100.6,26.7
		c1.9,0.5,4.3,0.3,6.3-0.2c24.8-6.5,49.5-13.1,74.3-19.7C429.1,165.3,437.7,163,446.3,160.8z M305.2,265.7c-1.1-0.4-1.8-0.7-2.6-0.9
		c-17.8-3.4-35.7-6.8-53.6-10c-4.8-0.9-8.2-3.7-8.3-9.4c0-1,0-2,0-3c0-8.1,0-16.2,0-24.3c0-1.3-0.1-2.5-0.2-3.9
		c-9.1,0-17.8,0-26.7,0c0,28.4,0,56.6,0,85.1c25.2,0.7,49.8,3.9,74.2,10.1C295.3,295.3,301,281.1,305.2,265.7z M346.5,332.6
		c17.9-19.9,30.9-42.4,39.4-68.1c-11.2,1.7-21.7,3.6-32.4,4.8c-10.7,1.1-21.4,0.4-32.3-1.1c-4.5,15.9-10.2,30.8-17.4,45.6
		C318.7,318.8,332.8,324.8,346.5,332.6z M197.4,391.8c0-25.8,0-51,0-76.7c-22.5,0.2-44.3,3.2-66.2,8.5
		C148.6,351.1,170.4,373.7,197.4,391.8z M197.4,96.3c0-25.2,0-50.4,0-76.2c-27,18.1-48.8,40.6-66,67.9
		C144.1,92.6,186.5,98.1,197.4,96.3z M279.4,323.7c-13.5-4.6-56.6-10.1-65.5-8.1c0,25.2,0,50.4,0,75.8
		C238.4,376.4,266.5,347.1,279.4,323.7z M279.4,88.1C269,67.3,231.5,28.9,214,20.8c-0.8,8.7-0.5,72.3,0.4,75.8
		C229.1,97.5,266.4,92.5,279.4,88.1z M213.8,149.7c28.7-7.6,56.9-15.1,85-22.6c-2.4-7.4-8-19.7-11.2-24.4
		c-24.1,6.2-48.8,9.3-73.9,10C213.8,125,213.8,136.9,213.8,149.7z M334.7,67.1c-13.1-12.1-27.6-22.1-43.3-30.3
		c-13.6-7.1-42.6-17.2-49.8-16c10.8,9.1,20.8,18.7,29.9,29.2c9.2,10.6,17.2,22.1,24.5,33.8C309.5,79.7,326.9,72.3,334.7,67.1z
		 M170.1,20.4c-21.3-1-77.4,27.4-93.3,47c8.5,5.5,28.2,13.7,38.6,16.2C130,59.6,148,38.4,170.1,20.4z M240.9,391.7
		c27.5-2.3,81.1-29.8,93.4-47.5c-12.2-6.7-24.9-12-38.4-16.1C281.4,352.4,263.2,373.2,240.9,391.7z M170.1,392
		c-7.4-6.9-14.5-13.1-21-19.9c-6.4-6.7-12.4-13.7-18.1-21c-5.7-7.4-10.8-15.3-16.1-22.9C97,334,82.5,340.4,76.8,345
		c16.4,15.2,34.9,27.2,55.5,35.8C144.3,385.8,156.6,389.9,170.1,392z M376.8,124.5c-8.2-16.9-18-31.8-30.1-45.1
		c-7.3,3.6-14.2,7.1-21.3,10.2c-7,3.1-14.2,5.7-21.4,8.5c3.7,8.4,7.2,16.3,10.7,24.4c1.4-0.2,2.5-0.3,3.6-0.6
		c5.9-1.6,11.8-3,17.7-4.8c4.2-1.3,8.3-1.6,12.5-0.1c3.6,1.2,7.3,2,11,3C365.1,121.5,370.6,122.9,376.8,124.5z M240.6,177.7
		c-9-2.4-17.6-4.6-26.3-6.9c-0.9,5.4-0.8,23.3,0.1,26.9c8.7,0,17.4,0,26.3,0C240.6,191.1,240.6,184.7,240.6,177.7z M479,271.9
		c0-9.7,0-18.4,0-27.3c-2.6-1.4-5.2-2.9-7.7-4.3c-2.7,1.6-5.1,3-7.4,4.3c-0.8,6.3-0.6,23.3,0.4,27C469,267.3,473.8,267.3,479,271.9z
		"/>
</g>
</svg>
