<?xml version="1.0" encoding="utf-8"?>
<!-- Generator: Adobe Illustrator 25.0.0, SVG Export Plug-In . SVG Version: 6.00 Build 0)  -->
<svg version="1.1" id="Capa_1" xmlns="http://www.w3.org/2000/svg" xmlns:xlink="http://www.w3.org/1999/xlink" x="0px" y="0px"
	 viewBox="0 0 430 495.1" style="enable-background:new 0 0 430 495.1;" xml:space="preserve">
<style type="text/css">
	.st0{fill:#FFFFFF;}
</style>
<g>
	<path class="st0" d="M365,367.1c-6.1,2.5-12,5-17.7,7.4c-1.1,17.1-4.6,22.6-19,29.7c1.6,8.7,0.5,17.1-5.4,24.2
		c-5.8,6.9-13.5,9.9-22.7,9.8c-0.6,8-3.2,15-9.3,20.3c-6.1,5.3-13.3,7.2-21.5,6.5c-0.4,1.5-0.9,2.9-1.1,4.3
		c-2.7,16.5-22.1,27.9-39.5,18.4c-1.7-1-3.4-2-5.5-3.2c-6.9,7.3-15.1,11.6-25.2,10.3c-10.1-1.3-17.5-6.8-21.9-15.8
		c-16.6,3.1-25-0.3-34.5-13c-22.8,8.2-39.9-8-39.4-27.6c-1.5-0.4-3-0.8-4.6-1.1c-17.4-3.7-26.7-22.2-19.2-38.2
		c2.1-4.5,4.6-8.8,6.7-13c-1.3-5.7-2.6-11.2-3.7-16.7c-0.7-3.4-2.4-5.7-5.7-6.9c-3.6-1.3-7-2.9-10.9-4.6c-0.9,1.8-1.7,3.5-2.5,5.1
		c-5.2,10.3-15.9,14.4-26.5,9.9c-7.8-3.3-15.4-7.1-23.2-10.2c-10.3-4.2-15.5-16.4-10.6-27.4c8.5-18.9,16.8-37.9,25.2-56.9
		c9.7-22,19.5-44,29.1-66c2.9-6.7,7.6-11.1,14.7-12.9c4.1-1,7.9-0.6,11.7,1c8.5,3.7,17.1,7.3,25.5,11.3c9.6,4.6,13.6,15.3,9.7,25.3
		c-1.1,2.9-2.5,5.8-4,9.2c7,3.1,13.7,6.6,20.7,8.8c4.1,1.2,8.9,0.7,13.3,0c7.7-1.1,15.3-3.1,22.9-4.5c13.9-2.5,27.1-0.6,39.6,6.2
		c0.6,0.3,1.2,0.6,1.3,0.6c6.2-2.6,11.8-5.6,17.8-7.4c12.2-3.8,24.6-3.5,36.8,0.4c7.3,2.3,14.3,5.2,21.5,7.9
		c0.9,0.3,1.8,0.7,2.8,1.1c7.4,2.9,14.5,3,21.4-1.6c2.7-1.8,5.7-3.2,8.8-4.9c-1.1-3.1-2.1-5.9-3.2-8.6c-4.5-11.2,1.9-22.5,11.6-26.2
		c7.7-3,15.5-6,23.2-9c12.7-4.8,23.6,1.7,27.6,12.2c10,26.5,20.5,52.9,30.7,79.4c5.9,15.2,11.8,30.3,17.7,45.5
		c2.9,7.5,2.5,14.6-2.5,21.2c-2.2,2.9-5,4.8-8.3,6.1c-8.2,3.2-16.3,6.5-24.6,9.5c-10.7,3.9-20.9-0.6-25.7-10.8
		C366.4,370.5,365.8,369,365,367.1z M71,343c4.2,1.9,7.9,3.7,11.7,5.2c6.7,2.6,10.8,7.4,13.1,14.1c0.5,1.5,1.1,3.1,1.6,4.7
		c14-11.1,37.6-8.3,45.1,16.2c13.9-0.9,23.8,5.3,29.5,18.2c1-0.1,1.8-0.1,2.6-0.2c1-0.1,2-0.2,3-0.2c12-0.5,20.7,4.9,26.4,15.4
		c0.5,1,1.1,2,1.7,2.9c1.7-0.1,3.2-0.3,4.7-0.4c7.5-0.7,14.3,1.3,19.8,6.3c3.5,3.2,7.4,5.6,11.4,7.8c6.5,3.7,13,7.4,19.5,11
		c2.6,1.5,5.2,3,7.9,4.2c4.7,2,9.4,0.6,12.5-3.3c2.9-3.6,3.3-8.5,0.5-12.5c-1.3-1.8-3.2-3.4-5.2-4.5c-14.5-8.4-29.2-16.6-43.7-24.9
		c-1.3-0.7-2.7-1.4-3.8-2.3c-3.4-2.6-4.3-6.7-2.3-10.2c2.1-3.7,6.2-5.1,10.2-3.4c1.2,0.5,2.4,1.2,3.5,1.9
		c14.3,8.1,28.7,16.1,43,24.2c4.6,2.6,9.2,5.4,14,7.7c5.1,2.5,11,0.5,13.9-4.3c2.7-4.5,1.6-10.4-2.6-13.9c-1.1-0.9-2.5-1.7-3.8-2.4
		c-13.4-7.6-26.9-15.2-40.3-22.8c-1.3-0.7-2.6-1.5-3.7-2.5c-3-2.7-3.5-6.7-1.5-9.9c2.1-3.4,6.1-4.7,10-3.1c1.5,0.6,3,1.5,4.4,2.3
		c13,7.3,26,14.7,39.1,22c1.2,0.6,2.3,1.4,3.5,1.8c5.1,1.9,10.6-0.1,13.3-4.8c2.5-4.3,1.5-10.3-2.5-13.6c-1.8-1.5-3.9-2.6-5.9-3.7
		c-8.9-5.1-17.9-10.2-26.8-15.3c-11.1-6.3-22.2-12.6-33.3-19c-5.1-2.9-10.4-3.9-16.3-2.8c-6.6,1.2-12.8,3.4-19,5.7
		c-9,3.3-17.9,7-27.1,9.9c-9.4,3-19.2,3.9-29,1.6c-12.8-3-22.3-10.8-29.8-21.2c-3.4-4.7-2.2-10.1,2.4-13.7c1-0.8,2.2-1.5,3.3-2.2
		c16.8-10,32.3-21.6,46-35.6c1.7-1.7,3.5-3.3,5.6-5.3c-1.1-0.5-1.6-0.7-2.2-0.9c-7.1-2.5-14.4-2.6-21.7-1.4
		c-6.5,1.1-13,2.7-19.5,4.1c-11.9,2.6-23.4,2.3-34.3-3.8c-3.9-2.1-8-3.8-12.3-5.7C95.3,288.1,83.3,315.2,71,343z M359.3,352
		c-11-28.4-21.8-56.3-32.7-84.3c-4.2,2.2-7.8,4.2-11.5,6c-6.3,3.1-12.8,4.5-19.8,2.8c-4.3-1-8.7-2.1-12.9-3.5
		c-7-2.4-13.9-5.5-21-7.7c-11.1-3.5-22.2-3.1-33,1.8c-9.5,4.2-17.8,10.3-25.1,17.7c-12.8,12.9-27,24.1-42.3,33.9
		c-1.1,0.7-2,1.5-3.2,2.4c0.6,0.8,1,1.3,1.5,1.7c8.2,7.5,17.8,10,28.6,8.2c7.1-1.2,13.7-3.7,20.4-6.3c8.7-3.3,17.3-6.7,26.2-9.5
		c7.1-2.3,14.5-3.3,22.1-1.9c5.2,1,9.8,3.1,14.3,5.6c19.6,11.2,39.2,22.3,58.8,33.6c3.7,2.1,7.2,4.7,11.3,7.3
		C346.5,357.4,352.7,354.8,359.3,352z M75.7,214.6c-3.9,0.7-4.5,3.3-5.5,5.5c-12.6,28.3-25.1,56.7-37.7,85
		c-5.1,11.5-10.2,23.1-15.3,34.6c-1,2.2-1.9,4.3-0.4,6.8c0.4,0.3,0.8,0.8,1.4,1.1c7.7,3.5,15.4,7,23.2,10.3c1.4,0.6,3.1,0.3,4.9,0.5
		c1-2,1.9-3.5,2.6-5.2c14.9-33.7,29.8-67.3,44.7-101c2.9-6.7,5.9-13.3,8.8-20c1.5-3.6,1-5.2-2.5-6.8
		C91.8,221.6,83.6,218.1,75.7,214.6z M331.9,236.8c0.6,1.7,1.2,3.4,1.8,5.1c8.9,22.9,17.7,45.7,26.6,68.6
		c6.8,17.6,13.7,35.2,20.4,52.9c1.9,5,3.9,5.8,8.7,3.8c6.1-2.6,12.4-4.8,18.5-7.2c1.8-0.7,3.6-1.6,4.9-2.3c1.8-3,0.6-5.3-0.3-7.7
		c-15.7-40.6-31.5-81.3-47.3-121.9c-0.6-1.6-1.7-3.1-2.7-4.9c-1.9,0.3-3.6,0.3-5.1,0.8c-7.3,2.7-14.5,5.6-21.8,8.4
		C333.9,233.2,332.6,234.2,331.9,236.8z M130.7,452.2c3.6,0,7.2-2.3,9.4-6.7c5.3-10.3,10.7-20.6,15.9-30.9
		c2.7-5.3,0.4-11.5-5.1-14.3c-5.4-2.7-10.8-1-13.9,4.4c-5.5,9.6-11,19.3-16.5,29c-0.6,1.1-1.2,2.4-1.7,3.6
		C116.4,444.6,121.6,452,130.7,452.2z M166,464.2c4.5,0,7.8-1.8,10.1-6.1c4.5-8.5,8.8-17.1,13.4-25.6c1.5-2.8,1.5-5.4,0.5-8.1
		c-1.6-4.2-4.6-6.8-9.2-7.3c-5.1-0.6-8.4,1.1-10.7,5.4c-4.7,9-9.3,18-14,26.9c-1.1,2-1.5,4-1,6.2C156.1,460.5,160.8,464.1,166,464.2
		z M126.8,388.3c-0.5-5.4-3.5-9.6-8.3-11c-5-1.5-10.3,0.1-13,4.7c-4.5,7.8-8.7,15.6-12.7,23.7c-3.7,7.5,1.7,14.4,7.2,15.9
		c4.7,1.3,8.9-0.2,11.4-4.5c4.4-7.4,8.7-14.9,12.9-22.4C125.4,392.7,126,390.4,126.8,388.3z M224.2,446.4c-0.5-1.8-0.7-3.7-1.5-5.3
		c-2.1-4-5.4-6.2-10-6.2c-4.3,0-7.6,1.6-9.6,5.7c-3.9,7.9-8,15.7-12.1,23.4c-2.1,3.9-1.4,7.4,1.2,10.7c5,6.5,14.5,5.8,18.8-1.6
		c4.1-7,7.8-14.3,11.6-21.5C223.4,450,223.7,448.2,224.2,446.4z M230.9,470.6c2.6,1.4,4.8,2.9,7.2,3.9c4.1,1.7,7.9,0.6,11-2.3
		c3.1-2.9,4.4-6.5,3-10.8c-1.5-4.8-5.8-8.3-12.1-10C237.1,457.6,234.1,463.8,230.9,470.6z"/>
	<path class="st0" d="M146.1,139.6c8.9,4.4,15.9,10.4,21.8,18.5c6.1-6.1,12.9-11.1,21.1-14.8c-8.5-9.6-12.3-20.5-9.8-33.1
		c1.6-8.4,5.8-15.5,12.5-21c14.6-11.9,35.4-11.2,48.7,1.7c12.5,12.2,16.9,33.5,0.8,52.3c7.6,3.7,14.7,8.3,20.8,14.9
		c6-8,13-14.1,22-18.5c-6.7-8.1-9.4-17.1-7.7-27c1.3-7.8,5.1-14.3,11.4-19.3c12.8-10.2,30.5-9.7,42.3,1.6
		c11.3,10.8,14.3,29.1,2,44.5c1.3,0.8,2.5,1.5,3.7,2.3c14.6,8.6,23.4,21.3,26.9,37.8c0.4,1.8,0.5,3.6,0.5,5.5
		c-0.1,4.2-2.8,7.2-7,7.7c-1.5,0.2-3,0.1-4.5,0.1c-22.1,0-44.2,0-66.3,0c-1.8,0-3.6,0-5.8,0c-0.1,1.2-0.2,2.3-0.3,3.4
		c-0.2,5.1-2.9,7.9-8,8.4c-1.2,0.1-2.3,0-3.5,0c-35.1,0-70.2,0-105.3,0c-1.5,0-3,0.1-4.5-0.2c-4.3-0.7-6.6-3.5-6.8-7.9
		c-0.1-1,0-2,0-3.1c-1.6-1.3-3.5-0.6-5.2-0.6c-22.3-0.1-44.6,0-66.8,0c-1.3,0-2.7,0.1-4,0c-5-0.3-8-3.4-7.8-8.4
		c0.3-7.3,2.5-14,5.9-20.4c5.2-9.8,12.7-17.4,22.4-22.8c0.9-0.5,1.7-1,2.8-1.6c-6.4-7.9-9.2-16.7-7.6-26.5c1.3-7.8,5-14.4,11.2-19.4
		c12.9-10.5,30.8-10,42.7,1.5C155.7,105.9,158.5,124.3,146.1,139.6z M261,188.2c-4-17.5-23.8-36.8-50.1-34.1
		c-20.8,2.1-41.7,19.8-41.3,34.1C199.9,188.2,230.3,188.2,261,188.2z M85.3,176.4c23.4,0,46.8,0,70.5,0c0.6-1.4,1.3-2.8,1.9-4.1
		c-6.4-13.2-22.1-24.7-42-21.7C100.1,153,87.4,166.1,85.3,176.4z M344.6,176.4c-3.3-13.9-17.9-25-35.3-26.2
		c-15.3-1-30.9,8.3-37,22.4c0.6,1.2,1.2,2.5,1.8,3.8C297.8,176.4,321.2,176.4,344.6,176.4z M214.8,96.8
		c-11.3,0.1-20.7,9.6-20.5,20.7c0.2,11.3,9.5,20.4,20.9,20.3c11.3-0.1,20.7-9.5,20.5-20.7C235.5,105.9,226.1,96.7,214.8,96.8z
		 M138.2,117.8c-0.1-8.9-7.6-16.2-16.3-15.9c-8.9,0.2-15.9,7.6-15.7,16.6c0.2,8.8,7.2,15.5,16.1,15.5
		C131.4,134,138.3,127,138.2,117.8z M323.8,118.1c0-8.9-7.3-16.2-16.1-16.2c-8.8,0.1-16,7.4-15.9,16.4c0.1,8.8,6.9,15.7,15.9,15.7
		C316.7,134,323.8,127.1,323.8,118.1z"/>
	<path class="st0" d="M336.2,38.2c-1.1-3.9-1.8-6.8-2.6-9.7c-0.3-1.3-0.7-2.6-0.8-3.9c-0.1-3.4,2.2-6.7,5.3-7.6
		c3.8-1.2,7.6,0.2,9.5,3.6c0.6,1,0.9,2.1,1.2,3.3c3.2,11,6.3,22,9.4,33c1.4,4.9,0.3,8.5-3.4,10.4c-1.7,0.9-3.8,1.2-5.7,1.4
		c-3.1,0.3-6.3,0.2-9.5,0.3c-7.8,0.3-15.6,0.6-23.4,0.9c-1.3,0-2.7,0.1-4-0.2c-4.2-0.9-6.6-4.1-6.4-8.2c0.2-4,3.1-7,7.3-7.4
		c2.3-0.2,4.7-0.1,7-0.2c2.5-0.1,4.9-0.4,7.5-0.6c-9-12-58.1-31.7-84.8-35.1c-31.5-4-62.3-1.4-92.3,9.1
		C120.7,37.5,95,54.5,73.1,77.7c0.2,6.4,0.5,12.9,0.7,19.3c0.2,5,0.4,10,0.4,14.9c0,3.5-1.8,6-5.1,7.3c-2.9,1.2-5.6,0.6-7.9-1.3
		c-1.9-1.5-2.8-3.6-2.9-6.1c-0.1-3.3-0.1-6.7-0.2-10c0-1.3-0.2-2.6-0.4-4.6c-1,1-1.6,1.5-2,2.1c-15.5,22.2-26,46.6-31.3,73.2
		c-2.4,12.2-3.7,24.6-3.8,37.1c0,3.2-0.9,5.9-3.7,7.7c-5.1,3.2-11.5-0.1-12.2-6.3c-0.3-2.8-0.1-5.7,0-8.5
		c1.9-39.2,13.3-75.3,35-108.1c0.7-1.1,1.5-2.2,2.2-3.3c0.2-0.2,0.1-0.6,0.3-1.2c-1.2,0.2-2.3,0.3-3.4,0.6c-2.6,0.7-5.1,1.5-7.7,2.1
		c-4.2,1-8.3-1.4-9.5-5.3c-1.3-4.2,0.5-8,4.7-9.8c1.4-0.6,2.8-1,4.3-1.4c8.6-2.4,17.2-4.9,25.9-7.3c3-0.8,5.4-2.2,7.5-4.5
		c21.1-21.7,45.7-38.4,73.9-49.5c16.1-6.4,32.8-10.7,50-12.9c10.1-1.3,20.2-2,30.3-1.8c28.9,0.5,56.6,6.6,83,18.4
		c11.2,5,22,11,32.1,18C333.8,36.9,334.6,37.2,336.2,38.2z"/>
	<path class="st0" d="M425.4,205.4c0,1.8,0.2,3.7,0,5.5c-0.5,4.2-4,7.5-7.9,7.5c-4.4,0-7.6-3.2-7.9-7.9c-0.3-4.6-0.5-9.3-0.7-13.9
		c-1.1-19.5-5.4-38.4-12.6-56.5c-3.3-8.3-7.6-16.2-11.4-24.3c-0.7-1.5-1.6-2.9-2.2-4.5c-1.7-4.1,0.8-7.9,3.4-9.5
		c3.2-1.9,7.3-1.3,9.9,1.6c0.8,0.9,1.4,1.9,1.9,2.9c12.7,22.3,21.1,46,24.8,71.4c1.3,9.2,2.1,18.4,3.2,27.6
		C425.7,205.4,425.6,205.4,425.4,205.4z"/>
	<path class="st0" d="M90.2,235.6c0.1,4.6-3.4,8.1-8.1,8.1c-4.5,0-7.9-3.2-8-7.6c-0.1-4.7,3.2-8.4,7.7-8.5
		C86.3,227.5,90.2,231.2,90.2,235.6z"/>
	<path class="st0" d="M352.8,251.8c-4.6-0.1-8.2-3.8-8-8.3c0.2-4.4,4.2-8.1,8.6-7.9c4.3,0.2,7.6,3.7,7.6,8.2
		C361,248.6,357.6,251.9,352.8,251.8z"/>
</g>
</svg>
