<?xml version="1.0" encoding="utf-8"?>
<!-- Generator: Adobe Illustrator 25.0.0, SVG Export Plug-In . SVG Version: 6.00 Build 0)  -->
<svg version="1.1" id="Capa_1" xmlns="http://www.w3.org/2000/svg" xmlns:xlink="http://www.w3.org/1999/xlink" x="0px" y="0px"
	 viewBox="0 0 511 463" style="enable-background:new 0 0 511 463;" xml:space="preserve">
<style type="text/css">
	.st0{fill:#FFFFFF;}
</style>
<g>
	<path class="st0" d="M511,148.8c-2.7,4.5-5.9,8.6-11.1,10.3c-3.8,1.2-7.7,1.9-11.6,2.7c-4.6,0.9-9.1,1.5-13.9,2.3
		c-2.9,3.8-4.3,8.2-5.3,12.7c-0.3,1.3,0.7,3.2,1.5,4.5c3.1,4.5,6.5,8.9,9.8,13.2c4.7,6.2,5.7,12.9,3.5,20.3
		c-1.3,4.3-3.5,7.8-7.2,10.4c-3.6,2.5-7,5.1-10.4,7.7c-8,6.2-17.7,6.3-25.8,0.3c-4.1-3.1-8.1-6.4-12.1-9.6c-1.4-1.1-2.9-2.2-4.6-3.4
		c-4.4,2.1-8.8,4.1-13.1,6.1c-0.9,5.2-1.7,10.1-2.5,15c-0.4,2.5-0.7,4.9-1.1,7.4c-2.2,11.4-12.3,17.3-19.9,17.2
		c-4.8-0.1-9.6-0.1-14.5,0c-8,0.2-17.7-6.6-19.5-16.3c-1.1-5.7-2.2-11.4-2.8-17.2c-0.4-4.3-1.9-7.2-6.4-8.3c-2.9-0.7-5.4-2.7-9-2.3
		c-5,3.7-10.4,7.7-15.7,11.7c-4.2,3.1-8.8,4.5-14,4.2c-4.8-0.3-9.1-1.8-12.7-5c-3.6-3.3-7-6.7-10.4-10.1c-8.2-8.3-8.4-20.1-1.7-29.1
		c3-4,6-8,9-12c1.1-1.4,1.9-3,2.8-4.6c-2.1-4.4-4.1-8.6-6-12.8c-6.9-1.2-13.4-2.5-20-3.3c-12.7-1.7-19.2-12.3-18.8-21.5
		c0.2-4.3,0.1-8.6,0-13c-0.1-9.6,6.5-18.8,16.8-20.6c5.4-0.9,10.8-1.9,16.2-2.8c1.9-0.3,3.8-0.8,5.5-1.2c0.6-0.9,1.1-1.4,1.3-2
		c1.7-3.6,3.3-7.2,5-11.2c-2.5-3.3-5-6.7-7.4-10c-1.5-2-2.8-4.1-4.5-6c-8.2-9.4-5.5-21.2,0.8-28.7c3.2-3.8,6.8-7.3,10.6-10.6
		c7.1-6.1,17.8-6.4,25.4-0.8c4.7,3.5,9.2,7.2,13.7,10.8c1.2,0.9,2.4,1.7,3.6,2.6c3.7-1.7,7.2-3.2,10.6-4.9c2.4-1.1,3.7-3,4.1-5.8
		c0.8-5.8,1.7-11.5,2.8-17.2c2.1-10.7,12.7-18.4,22.2-18c4,0.2,8,0,12,0c10.8,0.2,19.2,7.7,20.9,18.4c0.9,5.9,2,11.8,2.9,17.7
		c0.4,2.6,1.5,4.2,4,5c3.1,1,6.2,2.3,9.6,3.6c1.8-1.2,3.6-2.3,5.3-3.5c4.2-3,8.2-6.2,12.4-9.2c7.6-5.5,16.7-5.8,24.1,0
		c5.4,4.3,10.5,9.3,14.8,14.7c5.6,6.9,5.2,17-0.1,24.7c-3.1,4.5-6.5,8.8-9.8,13.2c-1,1.3-1.8,2.7-2.8,4.1c2,4.5,4,8.6,6,13
		c6.1,1,11.9,2.1,17.8,3c5.2,0.8,10.2,1.9,14.1,5.6c2,1.9,3.6,4.2,5.4,6.4C511,127.5,511,138.1,511,148.8z M388.9,249.3
		c0.5-2.4,1-4.2,1.3-5.9c1-5.6,1.9-11.1,2.7-16.7c1.2-8.1,6.2-12.9,13.4-15.9c1.8-0.8,3.8-1.3,5.5-2.2c8.6-4.7,16.6-3.5,24.2,2.2
		c4.8,3.6,9.5,7.2,14.4,10.7c2.5,1.8,4,1.8,6.2-0.3c3.2-2.9,6.2-6,9.2-9.1c1.9-2,1.9-3.5,0.5-5.8c-0.6-1-1.4-1.9-2-2.8
		c-3.6-4.8-7.3-9.5-10.7-14.4c-4.1-5.9-4.8-12.3-2-18.9c1.5-3.5,2.9-7.1,4.6-10.5c3.1-5.9,7.8-9.8,14.6-10.9
		c5.9-0.9,11.8-1.9,17.7-3c1.5-0.3,3-1,4.6-1.6c-0.2-6.9,1.3-13.5-1-19.9c-7-1.2-13.5-2.4-20.1-3.3c-7.9-1.2-13.4-5.4-16.5-12.8
		c-1-2.3-1.8-4.7-2.9-6.9c-4.3-8.8-3.5-17,2.3-24.8c3.3-4.4,6.6-8.7,9.8-13.2c2.1-2.9,2-4.9-0.5-7.5c-2.4-2.5-4.9-5-7.4-7.4
		c-3.4-3.3-4.6-3.4-8.5-0.3c-4.5,3.5-8.8,7-13.4,10.4c-4.9,3.7-10.4,5.4-16.4,3.7c-4.4-1.3-8.7-3.2-13-4.9c-6.9-2.7-11-7.9-12.6-15
		c-0.8-3.5-1.3-7.2-1.9-10.8c-0.7-4.2-1.5-8.4-2.3-12.8c-6.7-1.3-12.8-1.1-19.3-0.2c-0.5,2.4-1,4.4-1.3,6.5
		c-0.7,4.8-1.3,9.5-1.9,14.3c-1,8.3-5.8,13.5-13.3,16.6c-1.8,0.8-3.8,1.3-5.5,2.3c-8.8,4.9-16.9,3.5-24.7-2.2
		c-4.4-3.2-8.7-6.6-13.2-9.9c-1.3-1-2.7-1.7-4.4-2.8c-4.6,3.5-8.2,7.7-12,11.5c-0.9,0.9-1.3,2.2-2,3.4c1,1.5,1.7,2.7,2.6,3.9
		c3.2,4.3,6.4,8.5,9.6,12.8c5.2,7.1,6.5,14.8,2.8,23c-1.4,3-2.5,6.1-4.1,9.1c-3,5.9-7.5,10-14.4,11.1c-3.6,0.6-7.2,1-10.8,1.9
		c-3.8,0.9-8,0.3-11.3,2.7c-1.4,6.6-1,16.5,0.9,19.8c0.5,0.1,1.1,0.4,1.8,0.5c5.7,1,11.4,2,17.2,2.9c4.7,0.7,9,2.3,12.5,5.7
		c3.9,3.8,10,17.8,10.2,23.4c0.2,5.2-1.4,9.8-4.5,13.9c-4.1,5.6-8.3,11.2-12.3,16.5c-0.6,2.5,0.1,4.3,1.6,5.8
		c2.9,2.8,5.6,5.7,8.5,8.4c0.9,0.9,2.2,1.3,3.4,2.1c1.7-1.1,3.3-2,4.8-3.1c4.2-3,8.1-6.4,12.4-9.2c7.2-4.8,14.8-6.7,23-2.3
		c2.5,1.3,5.1,2.4,7.7,3.5c6.7,2.8,10.6,7.8,12.3,14.6c0.9,3.7,1.3,7.5,2,11.3c0.7,4.1,1.4,8.1,2.2,12.4
		C376,250.6,382.2,249.8,388.9,249.3z"/>
	<path class="st0" d="M16.6,150.8c2.1,0,4.1,0,6.1,0c66.9,0,133.7,0,200.6,0c1.5,0,3-0.1,4.5,0c4.4,0.3,7.5,3.4,7.7,7.6
		c0.2,4.5-3,8.7-7.3,9.2c-1.6,0.2-3.3,0.1-5,0.1c-67,0-134.1,0-201.1,0c-1.8,0-3.6,0-5.8,0c-0.1,1.2-0.4,2.3-0.4,3.4
		c0,83,0,166-0.1,249c0,12.3,8.5,22,17.7,24.3c1.4,0.4,2.9,0.7,4.4,0.8c2,0.2,4,0.2,6,0.2c122.6,0,245.2,0,367.8,0
		c3.3,0,6.7,0,9.9-0.9c10.8-2.9,17.9-12.1,18.4-23.4c0.1-1.5,0-3,0-4.5c0-50.4,0-100.8,0-151.2c0-1.7,0.1-3.3,0-5
		c-0.2-2.9,3.1-6.3,5.6-6.9c3.4-0.8,6.8,0.3,8.7,3.4c0.8,1.4,1.2,3,1.6,4.6c0.2,0.9,0.1,2,0.1,3c0,51.4,0,102.8,0,154.2
		c0,10.1-2.6,19.4-8.9,27.4c-8,10.1-18.4,15.6-31.3,16.1c-2.3,0.1-4.7,0.1-7,0.1c-120.1,0-240.2,0-360.3,0c-2.9,0-5.9,0.7-8.8,0.7
		c-2.3,0-4.6-0.4-6.9-0.7C16.9,460.2,3.5,445,1,430.5c-0.6-3.3-0.9-6.6-0.9-9.9C0,317,0.1,213.4,0,109.8c0-20.2,13.4-36.8,31.2-41.2
		c3.8-0.9,7.9-1.4,11.8-1.4C112.7,67,182.4,67,252.1,67c1.3,0,2.7,0,4,0.2c4.2,0.9,6.7,4.2,6.5,8.2c-0.2,3.9-3.4,7.1-7.4,7.5
		c-1.7,0.2-3.3,0.1-5,0.1c-69,0-138.1,0-207.1,0c-6.7,0-12.8,1.5-18.1,5.9c-5.5,4.6-8.8,10.5-8.9,17.7c-0.2,14.3-0.1,28.6,0,42.9
		C16.1,149.7,16.3,150,16.6,150.8z"/>
	<path class="st0" d="M138.1,193.4c18.8,0,37.6,0,56.3,0c3.8,0,7.6,0.1,11.2,1.7c10.2,4.5,15.4,12.6,15.6,23.5
		c0.3,22.8,0.2,45.5,0,68.3c-0.1,10.7-5.2,18.8-15.1,23.2c-3.2,1.4-7.1,2.1-10.6,2.2c-38.4,0.1-76.8,0.2-115.2,0.1
		c-14.3,0-25.2-11-25.3-25.3c-0.1-22.8-0.1-45.5,0-68.3c0.1-11.7,7-21,17.9-24.2c2.8-0.8,5.9-0.9,8.9-0.9
		C100.6,193.4,119.3,193.4,138.1,193.4z M137.8,209.4c-17.9,0-35.9,0-53.8,0c-1.5,0-3-0.1-4.5,0.1c-4.2,0.3-7,3.1-7.5,7.2
		c-0.1,0.8,0,1.7,0,2.5c0,22.1,0,44.2,0,66.3c0,7.2,2.8,10,9.9,10c37.6,0,75.1,0,112.7,0c7,0,10-3,10-10c0-21.8,0-43.5,0-65.3
		c0-7.8-3-10.7-10.9-10.7C175,209.4,156.4,209.4,137.8,209.4z"/>
	<path class="st0" d="M228.7,352.2c54.9,0,109.8,0,164.7,0c1.7,0,3.3,0.1,5,0c2.8-0.2,6.3,3,6.9,5.6c0.8,3.4-0.3,6.8-3.4,8.7
		c-1.4,0.8-3,1.3-4.6,1.6c-1.3,0.3-2.7,0.1-4,0.1c-109.9,0-219.9,0-329.8,0c-1.7,0-3.3,0.1-5-0.1c-4.2-0.6-7.5-4.4-7.3-8.1
		c0.2-3.8,3.9-7.4,7.9-7.7c1.5-0.1,3,0,4.5,0C118.6,352.2,173.6,352.2,228.7,352.2z"/>
	<path class="st0" d="M228.6,405c54.9,0,109.8,0,164.7,0c1.7,0,3.3-0.1,5,0.1c4,0.3,6.6,2.7,7.1,6.4c0.5,3.8-1.5,7.4-5.2,8.7
		c-1.4,0.5-2.9,0.7-4.4,0.8c-1.7,0.1-3.3,0-5,0c-108.9,0-217.9,0-326.8,0c-2.3,0-4.7-0.1-6.9-0.6c-3.6-0.8-6.1-4.3-6-7.6
		c0.2-3.5,3.2-7.1,6.8-7.6c1.8-0.3,3.6-0.2,5.5-0.2C118.5,405,173.5,405,228.6,405z"/>
	<path class="st0" d="M335.4,299.5c19.5,0,38.9,0,58.4,0c1.3,0,2.7-0.1,4,0c4.5,0.3,7.6,3.4,7.7,7.6c0.1,4.3-3.1,7.9-7.6,8.3
		c-1,0.1-2,0-3,0c-40.2,0-80.5,0-120.7,0c-1,0-2,0.1-3,0c-4.2-0.4-7.3-3.4-7.6-7.3c-0.3-3.8,3-7.8,7-8.5c1.5-0.2,3-0.1,4.5-0.1
		C295.2,299.5,315.3,299.5,335.4,299.5z"/>
	<path class="st0" d="M63.8,109.6c2.8,0,5.7-0.1,8.5,0c4.2,0.2,7.2,3.3,7.5,7.2c0.3,3.7-2.2,7.1-6,8.1c-1.1,0.3-2.3,0.5-3.4,0.5
		c-5,0.1-10,0.1-15,0c-1.1,0-2.3-0.2-3.4-0.6c-3.6-1.1-6-4.4-5.7-7.8c0.3-3.6,3.4-6.9,7-7.4c0.3,0,0.7-0.1,1-0.1
		C57.5,109.6,60.7,109.6,63.8,109.6C63.8,109.6,63.8,109.6,63.8,109.6z"/>
	<path class="st0" d="M102.6,109.6c3,0,6-0.1,9,0c4,0.2,6.9,3.1,7.3,6.9c0.4,4.2-1.9,7.4-6,8.5c-1.3,0.3-2.6,0.5-3.9,0.5
		c-4.5,0.1-9,0.1-13.4,0c-1.1,0-2.3-0.2-3.4-0.4c-4.4-1-6.6-3.9-6.3-8.2c0.2-3.9,3.4-6.9,7.5-7.3c0.3,0,0.7,0,1,0
		C97,109.6,99.8,109.6,102.6,109.6C102.6,109.6,102.6,109.6,102.6,109.6z"/>
	<path class="st0" d="M141.9,109.6c2.8,0,5.7-0.1,8.5,0c4.5,0.2,7.2,2.9,7.5,7.1c0.3,4.3-1.8,7.4-6.1,8.3c-1.9,0.4-3.9,0.5-5.9,0.5
		c-3.5,0.1-7,0.1-10.5,0c-1.5,0-3-0.1-4.4-0.5c-4.1-1-6.4-4-6.2-7.8c0.1-3.9,3.2-7.2,7.2-7.5C135.3,109.5,138.6,109.7,141.9,109.6
		C141.9,109.6,141.9,109.6,141.9,109.6z"/>
	<path class="st0" d="M275.5,262.6c-1.3,0-2.7,0.1-4,0c-4.5-0.3-7.7-3.2-8-7.3c-0.2-3.7,2.9-8,7-8.4c3.6-0.4,7.3-0.4,10.9,0
		c3.9,0.4,7,4.4,6.8,8c-0.2,3.8-3.8,7.4-7.8,7.7C278.9,262.7,277.2,262.6,275.5,262.6C275.5,262.6,275.5,262.6,275.5,262.6z"/>
	<path class="st0" d="M433.4,132.8c0.4,28.8-23.9,53.4-53.7,53.2c-26.4-0.1-53-21-53.1-53.4c-0.1-30,23.8-53.6,53.5-53.5
		C412.6,79.3,434.1,106,433.4,132.8z M343.4,132.8c0.1,18.4,14.2,36.6,37,36.4c20.9-0.2,36.4-16.4,36.4-36.6
		c0-22.7-19-36.8-36.9-36.7C359.6,95.9,343.3,112.4,343.4,132.8z"/>
</g>
</svg>
