<?xml version="1.0" encoding="utf-8"?>
<!-- Generator: Adobe Illustrator 25.0.0, SVG Export Plug-In . SVG Version: 6.00 Build 0)  -->
<svg version="1.1" id="Capa_1" xmlns="http://www.w3.org/2000/svg" xmlns:xlink="http://www.w3.org/1999/xlink" x="0px" y="0px"
	 viewBox="0 0 479.5 456.8" style="enable-background:new 0 0 479.5 456.8;" xml:space="preserve">
<style type="text/css">
	.st0{fill:#FFFFFF;}
</style>
<g>
	<g>
		<path class="st0" d="M479.4,86c-0.2-3.3-2.9-6.1-6.3-6.5c-0.9-0.1-1.9-0.1-2.9-0.1l-0.8,0h-0.8c-11.2,0-22.5,0-33.7,0
			c-16.1,0-32.1,0-48.2,0c-1.4,0-2.8-0.1-4.2-0.1c-0.6,0-1.1-0.1-1.7-0.1l-2.8-0.1l-0.9-2.7c-6.6-20.6-18.8-38.3-35.3-51.2
			c-16.1-12.5-35.4-19.8-55.8-21.1c-2.2-0.1-4.4-0.2-6.6-0.2c-15.9,0-31.3,3.8-45.7,11.3c-24.9,13-42,33.5-51,61.1l-0.8,2.5
			l-2.6,0.2c-5,0.4-27.2,0.5-36.5,0.5c-0.5,0-53.9,0-58-0.9l-2.2-0.5L81.9,76c0-0.1-0.1-0.3-0.1-0.4c-0.2-0.4-0.4-1-0.5-1.7
			c-1.7-7.2-3.5-14.5-5.2-21.7c-3.4-14.5-7-29.4-10.6-44.1C64,1.9,61.7,0.1,55.3,0c-6.8,0-13.7,0-20.5,0C25.8,0,17.7,0,9.9,0.1
			C8,0.1,6.2,0.3,4.8,0.8C1.5,1.9-0.2,4.9,0,8.9c0.2,3.2,2.5,6,5.6,6.8C6.6,15.9,8,16,9.4,16h0.3c6.1,0,12.1,0,18.1,0
			c5.4,0,10.9,0,16.3,0c1.1,0,2.1,0.1,3,0.2c0.4,0,0.8,0.1,1.2,0.1l2.9,0.2l0.7,2.8l43,180.6l16.4,68.8l0.9,3.6l-3.5,1.1
			c-17.2,5.6-22.2,8.4-28.1,15.9c-7,8.7-10.1,18.7-9.2,29.7c0.7,9.2,4.2,17.4,10.3,24.2c8.6,9.7,19.6,14.5,33.4,14.6l14.9,0.1
			l-13,7.3c-14.8,8.4-23.4,19.6-26.2,34.1c-3,15.7,0.7,29.5,11,41.1c9.2,10.4,21.9,16.1,35.6,16.1c13.1,0,25.4-5.3,34.6-15
			c9.8-10.4,14.1-22.7,12.9-36.6c-1.6-17.7-10.8-30.8-28.2-40l-14.2-7.5H397l-12,7.4c-0.7,0.4-1.3,0.8-1.8,1.1
			c-1,0.6-1.8,1.1-2.7,1.6c-18.1,10.6-27.2,31.4-22.7,51.5c5,22,24.1,37.4,46.5,37.4c4.4,0,8.8-0.6,13.1-1.8
			c24.2-6.8,39-31.3,33.6-55.8c-3-13.6-10.7-24.2-22.9-31.4c-0.9-0.5-1.7-1.1-2.5-1.6c-0.3-0.2-0.7-0.5-1-0.7l-9.1-5.9l10.8-1.4
			c3.8-0.5,7.4-0.5,10.8-0.6c1.8,0,3.5-0.1,5.2-0.2c3.8-0.2,6.8-3.3,6.9-7.3c0.2-4-2.5-7.4-6.3-8c-2.1-0.4-4.4-0.5-7.3-0.5
			c-86.1,0-172.3,0-258.5,0h-61.1c-0.4,0-0.8,0-1.3,0c-1.1,0-2.4,0-3.8-0.1c-1.9-0.1-3.8-0.3-5.8-0.9c-12.2-3.7-20-15.9-18.1-28.3
			c2-13.9,13.9-22.2,24.3-22.2c0.2,0,0.3,0,0.5,0c0.4,0,0.8,0,1.2,0c0.7,0,1.4,0,2,0c0.7,0,1.4,0,2.2,0h85c58.5,0,126.5,0,193.4-0.1
			c4.8,0,9.1-0.1,13-1c15-3.5,24.6-12.8,28.6-27.6c1.5-5.6,2.9-11.4,4.2-17c0.7-3,1.4-6,2.2-9.1l9-37c8.5-34.9,17.4-71,26-106.6
			C479.3,89.8,479.5,87.8,479.4,86z M404.6,377.4c17.3,0,30.9,13.5,31.7,31.3v0.3c-0.4,18.1-13.6,31.4-31.3,31.8c-0.2,0-0.5,0-0.7,0
			c-17.5,0-31.4-13.8-31.5-31.5c-0.2-17.8,13.2-31.6,31.2-31.9H404.6z M160.5,387.4c5.4,5.9,8.5,13.8,8.5,21.7
			c0,15.4-11.8,31.4-31.5,31.7c-0.2,0-0.3,0-0.5,0c-8.6,0-16.6-3.4-22.6-9.6c-5.8-6-9-14.1-8.8-22.2c-0.2-8.1,3-16.1,8.8-22.1
			c6-6.2,14-9.5,22.6-9.5C146.2,377.4,154.5,380.9,160.5,387.4z M219.5,45.1C235.6,28.9,257,20,279.9,20h0.1
			c46.9,0,85.1,38.2,85.1,85.1c0,23.1-8.9,44.7-25.1,60.7c-8,7.9-17.3,14.1-27.5,18.2c-10.2,4.2-21.2,6.3-32.5,6.3h0
			c-22.9,0-44.3-8.9-60.4-24.9c-15.9-15.9-24.9-37.9-24.8-60.2C194.7,82.6,203.5,61.3,219.5,45.1z M460.3,100.6l-1.2,5.1l-2.7,11
			l-7.1,29.3c-6.7,27.6-13.4,55.2-20.1,82.8c-2.1,8.5-4.4,18.1-6.8,27.6c-2.7,10.6-8.7,15.9-19.6,17.3c-2,0.2-3.8,0.4-5.4,0.4
			c-69.5,0-138.9,0-208.4,0h-59.6l-0.8-3c-2.7-9.9-5.1-20-7.3-29.8c-1-4.2-2-8.5-3-12.7c-2.2-9-4.3-18.1-6.4-27
			c-1.2-5.2-2.5-10.4-3.7-15.6c-3.3-13.7-6.6-27.9-10-42.1c-2.4-9.8-4.7-19.6-7.1-29.5l-3.2-13.3l-0.9-3.9l3.9-0.9
			c0.4-0.1,0.7-0.2,1-0.3c0.9-0.2,1.8-0.5,3-0.5c13.6,0,27.2,0,40.8,0c12.4,0,24.7,0,37.1,0c0.7,0,1.3,0.1,1.9,0.2
			c0.2,0,0.5,0.1,0.8,0.1l3.6,0.4l-0.1,3.6c-0.3,17.1,2.6,32.8,8.7,46.7c6.2,14.1,16,26.6,29,37.3c18.3,15,39.4,22.6,62.9,22.6
			c1.9,0,3.7,0,5.6-0.1c26.1-1.3,50.3-12.4,68.2-31.3c18.7-19.7,28.8-46.4,28.2-75.2l-0.1-4.1h80.1L460.3,100.6z"/>
	</g>
	<g>
		<path class="st0" d="M319.4,113.8c0,2.1-0.8,4.2-2.3,5.7l-28.7,28.7c-1.5,1.5-3.5,2.3-5.7,2.3c-2.1,0-4.1-0.8-5.7-2.3l-28.7-28.7
			c-1.5-1.5-2.4-3.5-2.4-5.7v-0.6c0-2.9,1.3-4.8,2.5-5.8c1.5-1.4,3.6-2.2,5.6-2.2c1.5,0,3.6,0.4,5.6,2.4l8.2,8.2l6.8,6.8V60.2
			c0-4.4,3.6-8,8-8c4.4,0,8,3.6,8,8v62.4l6.8-6.8l8.2-8.2c2-2,4.1-2.4,5.6-2.4c4,0,8.1,3,8.1,8V113.8z"/>
		<path class="st0" d="M319.4,113.8c0,2.1-0.8,4.2-2.3,5.7l-28.7,28.7c-1.5,1.5-3.5,2.3-5.7,2.3c-2.1,0-4.1-0.8-5.7-2.3l-28.7-28.7
			c-1.5-1.5-2.4-3.5-2.4-5.7v-0.6c0-2.9,1.3-4.8,2.5-5.8c1.5-1.4,3.6-2.2,5.6-2.2c1.5,0,3.6,0.4,5.6,2.4l8.2,8.2l6.8,6.8V60.2
			c0-4.4,3.6-8,8-8c4.4,0,8,3.6,8,8v62.4l6.8-6.8l8.2-8.2c2-2,4.1-2.4,5.6-2.4c4,0,8.1,3,8.1,8V113.8z"/>
		<path class="st0" d="M319.4,113.2v0.6c0,2.1-0.8,4.2-2.3,5.7l-28.7,28.7c-1.5,1.5-3.5,2.3-5.7,2.3c-2.1,0-4.1-0.8-5.7-2.3
			l-28.7-28.7c-1.5-1.5-2.4-3.5-2.4-5.7v-0.6c0-2.9,1.3-4.8,2.5-5.8c1.5-1.4,3.6-2.2,5.6-2.2c1.5,0,3.6,0.4,5.6,2.4l8.2,8.2l6.8,6.8
			V60.2c0-4.4,3.6-8,8-8c4.4,0,8,3.6,8,8v62.4l6.8-6.8l8.2-8.2c2-2,4.1-2.4,5.6-2.4C315.3,105.2,319.4,108.2,319.4,113.2z"/>
	</g>
</g>
</svg>
