<?xml version="1.0" encoding="utf-8"?>
<!-- Generator: Adobe Illustrator 25.0.0, SVG Export Plug-In . SVG Version: 6.00 Build 0)  -->
<svg version="1.1" id="Capa_1" xmlns="http://www.w3.org/2000/svg" xmlns:xlink="http://www.w3.org/1999/xlink" x="0px" y="0px"
	 viewBox="0 0 480.6 495.2" style="enable-background:new 0 0 480.6 495.2;" xml:space="preserve">
<style type="text/css">
	.st0{fill:#FFFFFF;}
</style>
<g>
	<path class="st0" d="M159.1,430.4c0-13.7,0-26.9,0-40.6c-2.2-0.1-4.1-0.2-6.1-0.2c-35.4,0-70.9,0-106.3,0c-6.7,0-13.3-0.4-19.5-3.2
		c-15.5-6.9-24.6-18.7-26.7-35.7c-0.4-3.5-0.6-7-0.6-10.4c0-78.5,0-157,0-235.5c0-4.5,0.2-9,1.1-13.4c4.6-21.5,23.7-34.5,42.1-34.5
		c22.6,0.1,45.2,0,67.9,0c1.8,0,3.6,0,5.6,0c12.3-28,32.7-46.8,62.5-54.1c29.8-7.3,56.5-0.1,80.1,19c38.6-8.6,69.5,2.8,92.8,35.2
		c1.6,0,3.4,0,5.2,0c26.6,0,53.2,0,79.8,0c11.1,0,20.8,3.9,29,11.4c8.2,7.5,13,16.7,13.9,27.8c0.3,3.8,0.5,7.6,0.5,11.4
		c0,78.3,0,156.7,0,235c0,11.1-2.4,21.4-9.5,30.3c-8.1,10.1-18.6,15.9-31.6,16.6c-2.5,0.1-5,0.1-7.5,0.1c-34.8,0-69.5,0-104.3,0
		c-2,0-3.9,0-6.2,0c0,13.7,0,26.9,0,40.5c1.5,0.1,2.9,0.2,4.4,0.2c13.6,0,27.3,0,40.9,0c8.3,0,16.2,1.9,23.3,6.2
		c7.8,4.8,13.3,11.4,15.3,20.6c0.4,1.8,0.6,3.6,0.6,5.4c0.1,7.7-0.2,15.3,0.1,23c0.3,6.1-4.2,10.1-9.5,9.5c-0.8-0.1-1.7,0-2.5,0
		c-102.5,0-204.9,0-307.4,0c-1.7,0-3.3,0.1-5-0.1c-3.9-0.5-6.9-3.3-7-7.2c-0.2-9.5-0.6-19,0.2-28.4c0.9-9.9,6.8-17.1,15.1-22.3
		c7.2-4.6,15.2-6.5,23.7-6.6c13.5-0.1,26.9,0,40.4,0C155.7,430.4,157.3,430.4,159.1,430.4z M170.7,260.7
		c-7.6,15.5-19.3,22.4-32.5,19.5c-12.8-2.8-22.1-13.7-22.6-26.4c-0.4-12.7,8-24.5,20-27.9c6.1-1.7,12.1-1.6,18.1,0.8
		c8.4,3.3,13.7,9.6,16.8,17.7c8.1,0,15.9,0,23.8,0c0-14.3,0-28.4,0-42.9c-1.8,0-3.5,0-5.1,0c-16.5,0-32.9,0.1-49.4-0.1
		c-5.3-0.1-10.7-0.6-15.8-1.9c-34-8.3-53.4-44.1-41.9-76.9c2.5-7.1,6.3-13.5,11.3-19.5c-0.9-0.2-1.6-0.3-2.2-0.3
		c-14.8,0-29.6,0.1-44.4,0.2c-0.1,0-0.3,0.1-0.4,0.2c-0.1,0.1-0.2,0.3-0.3,0.4c0,69.8,0,139.6,0,209.7c129.5,0,258.8,0,388.4,0
		c0-70.1,0-140,0-209.9c-5.3-1-43.5-0.8-47.1,0.2c0.7,0.8,1.3,1.6,1.9,2.4c16.6,21.7,16.7,50.8,0.1,72.2c-12,15.5-28,23-47.4,23.3
		c-16.8,0.3-33.6,0.1-50.4,0.1c-1.8,0-3.5,0.1-5.2,0.1c-0.7,8.6-0.5,39.1,0.3,42.9c7.7,0,15.5,0,23.2,0
		c8.2-16.1,19.1-22.2,33.9-18.8c11.8,2.7,20.9,14,21.2,26.5c0.3,12.9-8.3,24.1-21,27.6c-6.2,1.7-12.2,1.2-18-1.3
		c-7.9-3.4-13-9.6-16-17.7c-1.8,0-3.5,0-5.1,0c-8.2,0-16.3-0.3-24.4,0.1c-6.2,0.3-11.1-2.7-10.3-10.6c0.1-1.3,0-2.7,0-4
		c0-13.3,0-26.6,0-39.9c0-1.4-0.2-2.9-0.2-4.5c-7.2,0-14.2,0-21.3,0c0,17.3,0,34.3,0,51.4c15.7,8.3,22,19.3,19.1,32.8
		c-2.5,11.7-12.1,22.1-27,22.3c-12.8,0.2-23.1-7.5-27.1-19.7c-2-6-1.7-12.1,0.6-18.1c3.3-8.7,9.9-13.9,18-17.1
		c0.8-17.2,0.4-47.7-0.6-51.7c-6.9,0-13.8-0.1-21.1,0.1c0,2.5,0,4.4,0,6.4c0,14.6,0,29.3,0,43.9c0,5.7-3,8.5-8.6,8.7
		c-1.3,0-2.7,0-4,0C188.9,260.7,179.9,260.7,170.7,260.7z M240.4,185.5c32.6,0,65.2,0,97.8,0c3.5,0,7-0.3,10.4-0.7
		c20.1-2.4,38.2-20.4,37.1-44.1c-0.9-18.6-10.4-32-28-38.8c-10.2-4-9-4.8-10.5-13c-3.2-17.1-11.7-31-25.8-41.2
		c-18-13-37.9-16.1-59.1-9.6c-4.9,1.5-8.4,0.7-12.2-2.7c-19.1-16.9-41.4-23.3-66.1-17.2c-29.8,7.3-48.3,26.5-55.6,56.3
		c-1.6,6.3-2,12.8-1.7,19.3c0.2,4.2-1.6,7-5.4,8.6c-0.6,0.3-1.2,0.5-1.8,0.8c-26.2,12.7-32.8,46.7-13.1,68.2
		c9,9.8,20.3,14.2,33.4,14.2C173.2,185.6,206.8,185.5,240.4,185.5z M363.4,86.8c2.2,0,4.1,0,5.9,0c22.5,0,44.9,0,67.4,0
		c8.6,0,13.6,4.9,14.1,13.5c0,0.8,0,1.7,0,2.5c0,71.8,0,143.7,0,215.5c0,8.7-2.5,11.2-11.3,11.2c-132.7,0-265.4,0-398.2,0
		c-1.3,0-2.7,0-4-0.1c-3.3-0.3-5.7-2-6.6-5.2c-0.6-2-0.7-4.2-0.7-6.4c0-71.5,0-143,0-214.5c0-2.5,0.2-5,0.8-7.4
		c1.3-5.2,5.7-8.7,11.2-9.1c1.7-0.1,3.3-0.1,5-0.1c19.5,0,38.9,0,58.4,0c1.6,0,3.3,0,5.2,0c0.6-4.7,1.1-9.1,1.7-13.5
		c-0.7-0.2-1.1-0.4-1.6-0.4c-22.8,0-45.6-0.1-68.4,0.1c-11.9,0.1-22.9,9.6-25.2,21.2c-0.7,3.4-0.9,6.9-0.9,10.4
		c0,79.2,0,158.3,0,237.5c0,1.2,0,2.3,0,3.5c0.5,13.5,8.4,24.1,20.9,27.2c3.6,0.9,7.6,0.9,11.4,0.9c128.1,0,256.1,0,384.2,0
		c2,0,4-0.1,6-0.1c9.2,0,20.6-6.6,24.3-18.3c1.3-4.2,1.8-8.8,1.8-13.2c0.1-79.2,0.1-158.3,0.1-237.5c0-1,0-2,0-3
		c-0.5-11.3-5-20.2-15.3-25.6c-4.4-2.3-9-3.1-13.9-3.1c-23.6,0.1-47.2,0-70.9,0c-1.5,0-2.9,0.1-4.7,0.2
		C361,77.8,362.1,82.1,363.4,86.8z M390,479c0-6,0.1-11.4,0-16.9c0-3.1-1.5-5.7-3.6-8c-2.5-2.8-5.6-4.7-9.1-5.9
		c-4.1-1.4-8.4-1.8-12.7-1.8c-82.8,0-165.7,0-248.5,0c-1.2,0-2.3-0.1-3.5,0c-5.6,0.4-10.8,1.6-15.4,5c-3.2,2.3-5.9,5.3-6.3,9.2
		c-0.7,6.1-0.3,12.2-0.2,18.4C190.6,479,290,479,390,479z M305,390c-9.8-0.9-125.8-0.5-129.3,0.3c0,13.2,0,26.5,0,39.8
		c43.2,0,86.2,0,129.3,0C305,416.7,305,403.5,305,390z M336.9,264.6c6.6,0,12.1-5.4,12.1-11.9c0-6.2-5.4-11.8-11.7-11.9
		c-6.5-0.2-12.1,5.2-12.2,11.8C325,259.2,330.2,264.6,336.9,264.6z M240.3,268.4c-6.8,0-12,5.2-12,11.9c0.1,6.5,5.8,12.1,12.2,11.9
		c6.3-0.2,11.6-5.6,11.7-11.9C252.3,273.7,247.1,268.4,240.3,268.4z M155.5,252.6c-0.1-6.6-5.7-12-12.1-11.9
		c-6.2,0.1-11.7,5.6-11.7,11.9c-0.1,6.5,5.4,12,12,12C150.2,264.6,155.6,259.2,155.5,252.6z"/>
	<path class="st0" d="M141.6,86.7c1.5-25.1,18.6-46.8,43.5-53.6c4.6-1.2,9.4-1.8,14.2-2c5.5-0.3,8.9,2.9,9.1,7.7
		c0.2,4.3-3.6,8.2-8.7,8.3c-12,0.2-22.2,4.8-30.5,13.5c-7.2,7.6-11,16.8-11.7,27.3c-0.1,0.8,0,1.7-0.1,2.5c-0.5,4.4-3.6,7.4-7.8,7.5
		c-4.2,0.1-7.5-2.9-8-7.3C141.5,89.5,141.6,88.3,141.6,86.7z"/>
</g>
</svg>
