<?xml version="1.0" encoding="utf-8"?>
<!-- Generator: Adobe Illustrator 25.0.0, SVG Export Plug-In . SVG Version: 6.00 Build 0)  -->
<svg version="1.1" id="Capa_1" xmlns="http://www.w3.org/2000/svg" xmlns:xlink="http://www.w3.org/1999/xlink" x="0px" y="0px"
	 viewBox="0 0 468.4 495.1" style="enable-background:new 0 0 468.4 495.1;" xml:space="preserve">
<style type="text/css">
	.st0{fill:#FFFFFF;}
</style>
<g>
	<path class="st0" d="M160.8,295.8c-10.6,0-20.6,0-31.2,0c-0.2,1.7-0.5,3.3-0.5,4.9c-0.1,6.6,0,13.3,0,19.9
		c-0.1,11.7-6.9,18.4-18.6,18.5c-12.4,0-24.9,0-37.3,0c-1.6,0-3.3,0-5.1,0c-3.1,10.5-9.2,18.4-19,23.1c-7.3,3.5-15,4.3-22.7,2.4
		c-15-3.8-26.5-16.2-26.3-33.7c0.1-18.4,12.9-30.1,26.8-33.4c9.1-2.2,17.8-0.6,25.7,4.3c8,4.9,12.9,12.2,15.5,21.2
		c14.9,0,29.6,0,44.6,0c0.2-1.2,0.5-2.3,0.5-3.4c0-6.8-0.2-13.6,0.1-20.4c0.2-3.4,0.6-7.1,2.1-10.1c3.1-6.6,9-9.4,16.2-9.5
		c8-0.1,15.9,0,23.9,0c1.6,0,3.2,0,5.2,0c0-3.8,0-7.2,0-11.2c-1.7,0-3.5-0.1-5.2-0.1c-18.6,0-37.1-0.1-55.7,0
		c-10.5,0-20.9-0.9-30.7-4.8c-28.3-11.2-45.6-31.6-50.5-61.8c-5.4-32.7,12-64.3,39.4-79.3c0.7-0.4,1.4-0.8,2.6-1.5
		c0.2-1.9,0.5-4,0.6-6.1c1.4-53,39.9-100.5,93.3-111.9c38.2-8.1,72.5,0.5,102.7,25.1c0.6,0.5,1.3,1,1.9,1.5c0.1,0.1,0.3,0.1,0.9,0.3
		c30.9-8.4,61-5.5,88.8,11.9c27.8,17.3,44.1,42.7,50.2,75c2.6,1.2,5.4,2.3,8,3.7c23.3,11.7,37.9,30.3,42.8,55.8
		c8.4,44.6-22.7,83.2-61.4,90.2c-5.8,1.1-11.8,1.6-17.7,1.7c-18.9,0.2-37.8,0.1-56.7,0.1c-1.8,0-3.6,0-5.6,0
		c-1.2,3.7-0.5,7.2-0.5,11c1.6,0.1,2.8,0.3,4.1,0.3c8.3,0,16.6,0,24.9,0c6.9,0.1,12.6,2.6,16.2,8.8c1.9,3.2,2.4,6.8,2.4,10.5
		c0,6.3,0,12.6,0,18.9c0,1.6,0.1,3.2,0.2,5c15.1,0,29.8,0,44.8,0c3.1-10.6,9.4-18.7,19.7-23.3c7.3-3.3,15-4,22.8-1.8
		c14.7,4.1,26,16.9,25.6,33.8c-0.5,19.5-14.3,30.5-27.6,33.2c-15.9,3.2-34-4.8-40.7-25.8c-1.3,0-2.8,0-4.2,0c-13.1,0-26.2,0-39.3,0
		c-6.4,0-11.5-2.7-15-8.2c-1.7-2.8-2.4-5.8-2.4-9c0-6.8,0-13.6,0-20.4c0-1.8-0.2-3.5-0.4-5.6c-10.5,0-20.5,0-31,0
		c-0.1,1.4-0.3,2.8-0.3,4.2c0,10.4,0.1,20.9,0,31.3c-0.1,10.1-5.3,17.9-13.9,20.9c-2.6,0.9-5.5,1.2-8.3,1.8
		c-0.9,3.3-1.1,25.4-0.2,31.5c23.1,0,46.2,0,69.3,0c8-23,26.2-28.2,40.6-25.4c16.6,3.3,27.9,17.2,27.6,34.2
		c-0.3,18.1-13.3,31-29.4,33.7c-16.5,2.8-31.3-6.8-38.8-26c-1.6-0.1-3.3-0.2-5.1-0.2c-23,0-46.1,0-69.1,0c-1.7,0-3.3,0.1-5-0.2
		c-3.5-0.4-6-3.1-6.5-6.5c-0.2-1.5-0.1-3-0.1-4.5c0-10.4,0-20.9,0-31.3c0-1.6,0-3.3,0-5.4c-4.5-0.6-8.7-0.2-13-0.3
		c-4.3-0.1-8.6,0-12.9,0c-0.9,3.6-1.3,63.9-0.4,73.3c9.9,2.8,17.6,8.6,22.4,18c3.7,7.3,4.7,15.1,3,23.1c-3.5,16-18.2,27.5-34.8,26.9
		c-16.2-0.6-29.3-11.9-32.7-27.7c-3-13.9,3.1-33.2,25.6-40.6c0-24.1,0-48.2,0-72.3c-3.5-0.9-17.4-1.2-26-0.4
		c-0.1,1.2-0.4,2.4-0.4,3.7c0,11.1,0,22.2,0,33.3c0,1.5,0,3-0.2,4.5c-0.5,3.2-3,5.7-6.2,6.2c-1.6,0.2-3.3,0.2-5,0.2
		c-23,0-46.1,0-69.1,0c-1.8,0-3.6,0-5.1,0c-9.1,21.2-23.6,30-42.2,25.5c-15-3.6-26.6-16.6-26.2-34.3c0.4-17.5,12.7-30.4,28.4-33
		c16.9-2.8,33.1,5.3,39.8,25.5c23,0,46.2,0,69.3,0c0.8-3.7,1.1-22.9,0.4-31.5c-1.2-0.2-2.4-0.6-3.7-0.7c-10.4-1.1-19-9.6-18.9-22.4
		c0.1-10.1,0-20.2,0-30.3C160.8,299.2,160.8,297.6,160.8,295.8z M307.6,252.3c2.2,0,3.9,0,5.5,0c17.6,0,35.1,0,52.7,0
		c4.6,0,9.3-0.2,13.9-0.6c14.8-1.3,27.5-7.5,37.6-18.1c14.1-14.7,20.1-32.3,16.9-52.8c-2.2-14.3-8.9-26.2-19.4-35.9
		c-6.9-6.4-14.9-10.9-24-13.5c-4.5-1.3-6.8-4.1-7.4-8.8c-3.4-25.7-15.4-46.6-36-62.3c-15.9-12.1-33.9-18.3-53.9-18.6
		c-10.9-0.2-21.5,1.2-31.7,4.9c-4.2,1.5-7.7,0.8-10.8-2.4c-2-2-4.2-3.8-6.4-5.5c-25.7-19.9-54.6-26.8-86.4-20.1
		c-23.6,5-43.2,17.2-58.4,36.1c-14.2,17.7-22,37.9-22.7,60.7c-0.1,3.1,0,6.3,0,9.4c0,4.2-1.8,7.3-5.7,9c-2.4,1.1-4.8,2.2-7.1,3.6
		c-23.3,13.3-35.3,41.3-29.1,67.2c6.1,25.7,29.2,47.8,61.2,47.9c20.2,0.1,40.4,0,60.6,0c1.3,0,2.5-0.2,4.1-0.3c0-2,0-3.6,0-5.3
		c0-6-0.1-11.9,0-17.9c0.3-9.4,4.3-16.7,13.4-20.1c3.2-1.2,6.8-1.6,10.2-1.6c33.1-0.1,66.3-0.1,99.4-0.1c1,0,2,0,3,0
		c7.4,0.5,13.3,3.6,17.4,9.9c2.5,3.9,3.3,8.2,3.3,12.8C307.6,237,307.6,244.2,307.6,252.3z M233.7,337.8c16.2,0,32.5-0.1,48.7,0
		c8.3,0.1,9.3-2.3,9.3-9.2c-0.1-32.1-0.1-64.3-0.1-96.4c0-1.2,0.1-2.3,0-3.5c-0.3-3.9-2-5.6-6-5.9c-0.8-0.1-1.7,0-2.5,0
		c-32.6,0-65.3,0-97.9,0c-7.1,0-8.4,1.4-8.5,8.4c0,0.3,0,0.7,0,1c0,32.1,0.1,64.3-0.1,96.4c0,6.8,0.9,9.3,9.3,9.2
		C201.9,337.7,217.8,337.8,233.7,337.8z M80.2,375.6c-8.5-0.6-18.4,6.2-18.8,18.4c-0.3,9.8,8.4,18.4,18.3,18.5
		c10.1,0.1,18.9-8.3,18.7-18.5C98.4,382.1,88.4,375.2,80.2,375.6z M388.3,375.6c-8.2-0.5-18.2,6.3-18.5,18.2
		c-0.2,10.2,8.4,18.8,18.6,18.7c10.1,0,18.9-8.8,18.5-18.8C406.3,381.4,396.3,375.1,388.3,375.6z M234.2,479.2
		c10,0,18.6-8.2,18.6-18.2c-0.1-12.5-10.4-18.8-18.5-18.8c-8.4,0-18.2,6.5-18.6,18.2C215.3,470.5,224,479.1,234.2,479.2z
		 M34.3,349.6C46,349,53,340.9,52.9,330.9c-0.2-10.8-7.7-18.2-18.3-18.3c-10.7-0.1-18.6,7.7-18.5,18.6C16,341.7,23.9,349,34.3,349.6
		z M452.3,331.2c0.3-9-6.3-18.7-18.4-18.6c-10.5,0-18.2,7.5-18.4,18.3c-0.1,10,6.8,18.6,18.5,18.6
		C445.8,349.5,452.6,339.9,452.3,331.2z"/>
</g>
</svg>
