<?xml version="1.0" encoding="utf-8"?>
<!-- Generator: Adobe Illustrator 25.0.0, SVG Export Plug-In . SVG Version: 6.00 Build 0)  -->
<svg version="1.1" id="Capa_1" xmlns="http://www.w3.org/2000/svg" xmlns:xlink="http://www.w3.org/1999/xlink" x="0px" y="0px"
	 viewBox="0 0 473.5 479.2" style="enable-background:new 0 0 473.5 479.2;" xml:space="preserve">
<style type="text/css">
	.st0{fill:#FFFFFF;}
</style>
<g>
	<path class="st0" d="M31.6,295.4c-3.6-8.6-7-16.8-10.7-25.8c-3.9-1.5-8.6-3.5-13.4-5.2c-5.3-1.9-7.6-4.7-7.4-10.8
		c0.3-9.6,0.1-19.2,0.1-28.8c0-5.6,1.5-7.8,6.6-9.8c4.9-1.9,9.8-3.8,14.2-5.5c3.7-8.8,7.1-17,10.7-25.9c-1.7-4-3.8-8.6-5.8-13.3
		c-2.7-6.1-2.3-8,2.4-12.8c6.5-6.6,13.1-13.1,19.7-19.7c4.7-4.7,7.1-5.1,13.3-2.4c4.4,1.9,8.7,3.9,12.9,5.8
		c8.6-3.6,17-7.1,25.8-10.8c1.7-4.3,3.8-9,5.4-13.8c1.8-5.2,5.3-7.2,10.5-7.2c9.4,0.1,18.9,0.1,28.3,0c5.2-0.1,9,2.2,10.5,7.2
		c1.5,4.9,3.7,9.5,5.4,13.9c8.6,3.6,16.8,7,25.7,10.7c2.7-1.1,6-2.6,9.3-4c2-0.9,3.9-1.9,5.9-2.6c3.5-1.3,6.8-0.9,9.6,1.9
		c7.5,7.5,15,15,22.5,22.5c2.9,2.9,3.5,6.2,1.8,10c-2.3,5.1-4.5,10.3-6.5,14.7c3.7,8.8,7.1,17,10.7,25.8c3.7,1.5,8,3.2,12.3,4.9
		c7.8,3.1,8.4,3.8,8.4,12.4c0,1.3,0.1,2.6,0.1,4c0,0.1,0.2,0.2,0.8,0.8c1.3,0,3.1,0,4.9,0c38.6,0,77.2,0,115.8,0
		c1.5,0,3-0.1,4.5,0.1c4.1,0.5,7,3.7,7.1,7.7c0.1,4.2-2.9,7.6-7.2,8.1c-1.5,0.2-3,0.1-4.5,0.1c-38.4,0-76.9,0-115.3,0
		c-1.8,0-3.6,0-5.5,0c-1.2,2.5-0.6,5-0.6,7.4c0.1,4.6-2,7.5-6.2,9.1c-5.1,1.9-10.1,3.9-14.6,5.6c-3.7,8.9-7.1,17.1-10.8,25.8
		c1.9,4.3,4,9.1,6.2,13.9c2.2,5.1,1.8,7.6-2.2,11.6c-7,7.1-14.1,14-21.1,21.1c-3.3,3.4-7,4-11.3,2.1c-4.8-2.2-9.7-4.2-14.1-6.2
		c-8.8,3.6-17.1,7.1-25.8,10.7c-1.8,4.6-3.8,9.4-5.6,14.4c-1.6,4.6-4.8,6.5-9.4,6.5c-9.9,0-19.9,0-29.8,0c-4.9,0-8.1-2.1-9.8-6.8
		c-1.7-4.8-3.7-9.5-5.5-14.2c-8.6-3.5-16.9-7-25.8-10.7c-4,1.8-8.5,3.8-13,5.8c-6.1,2.6-8.6,2.1-13.3-2.6
		c-6.6-6.5-13.1-13.1-19.7-19.7c-4.7-4.7-5-6.6-2.3-12.8C27.8,304.1,29.8,299.6,31.6,295.4z M202.7,327.9
		c5.4-5.4,10.5-10.5,15.5-15.6c-1.9-4.3-3.4-8.2-5.3-11.8c-2.3-4.4-2.1-8.3,0.5-12.6c4.5-7.4,7.8-15.3,9.8-23.7
		c1.1-4.7,3.8-7.4,8.3-8.8c4.1-1.3,8-3.1,12-4.7c0-7.5,0-14.8,0-22.2c-4.5-1.7-8.8-3.4-13.1-5c-3.6-1.4-6-3.7-7-7.7
		c-2.1-8.6-5.2-16.8-9.9-24.2c-2.8-4.5-3-8.5-0.6-13c2-3.8,3.5-7.8,4.8-10.9c-5.6-5.6-10.8-10.7-16.1-16c-3.4,1.5-7.4,3.2-11.3,5.1
		c-4.3,2.1-8.1,1.9-12.2-0.7c-7-4.5-14.7-7.7-22.8-9.5c-5.6-1.3-8.6-4.3-10.2-9.5c-1.2-3.9-2.9-7.6-4.4-11.4c-7.5,0-14.6,0-21.9,0
		c-1.8,4.6-3.8,9-5.3,13.5c-1.3,3.9-3.9,5.9-7.7,6.9c-8.8,2.1-17,5.5-24.7,10.2c-4,2.4-7.7,2.5-11.7,0.6c-4-1.9-8.1-3.7-11.7-5.3
		c-5.4,5.4-10.5,10.5-15.9,15.9c1.8,3.9,3.6,8.3,5.7,12.7c1.6,3.4,1.6,6.6-0.4,9.9c-4.9,7.9-8.5,16.5-10.7,25.5
		c-1,4.1-3.3,6.6-7.3,8c-4.3,1.5-8.6,3.3-13,5c0,7.5,0,14.7,0,22.1c4.1,1.6,8.1,3.3,12.1,4.6c4.8,1.5,7.3,4.5,8.4,9.4
		c1.9,8.4,5.4,16.3,9.9,23.7c2.3,3.8,2.6,7.2,0.6,11.2c-2.1,4.1-3.8,8.4-5.4,12.2c5.4,5.4,10.5,10.6,15.8,15.9
		c3.4-1.5,7.1-2.9,10.6-4.7c4.8-2.6,9.2-2.5,14,0.5c7.3,4.6,15.4,7.7,23.8,9.7c3.8,0.9,6.4,3,7.7,6.9c1.5,4.5,3.5,8.9,5.2,13.1
		c5.4,0.8,18.4,0.7,22.2-0.2c1.6-4.2,3.5-8.5,5-12.8c1.3-3.8,3.8-6.1,7.6-7c8.9-2.1,17.3-5.6,25.1-10.3c3.6-2.2,7.1-2.4,10.8-0.7
		C193.9,324,198.1,325.9,202.7,327.9z"/>
	<path class="st0" d="M138.1,44.7c0,2.1,0,3.8,0,5.4c0,11.4,0,22.9,0,34.3c0,2-0.2,4-0.7,5.9c-1.1,3.8-4.4,5.7-8.5,5.3
		c-3.5-0.4-6.2-3.1-6.7-6.9c-0.1-1.1-0.1-2.3-0.1-3.5c0-15.2,0-30.5,0-45.7c0-1.2,0-2.3,0.1-3.5c0.4-3.9,3.1-6.7,7-7.1
		c1.3-0.1,2.6-0.1,4-0.1c82.8,0,165.6,0,248.5,0c1.5,0,3-0.1,4.5,0.1c3.8,0.6,6.5,3.7,6.7,7.5c0.2,4-2.6,7.5-6.5,8.1
		c-1.8,0.3-3.6,0.2-5.5,0.2c-78.8,0-157.7,0-236.5,0C142.3,44.7,140.4,44.7,138.1,44.7z"/>
	<path class="st0" d="M138.1,434.4c2.6,0,4.5,0,6.5,0c78.5,0,157,0,235.5,0c1.3,0,2.7,0.1,4,0c5-0.4,8.9,3.8,8.8,8.1
		c-0.1,4.7-3.4,7.7-9,7.9c-0.8,0-1.7,0-2.5,0c-82.7,0-165.3,0-248,0c-0.3,0-0.7,0-1,0c-7.8,0-10.3-2.5-10.3-10.4
		c0-15.4,0-30.8,0-46.2c0-1.2,0-2.3,0.1-3.5c0.5-3.7,3.3-6.3,6.9-6.6c3.9-0.3,7.1,1.5,8.1,5.1c0.6,2,0.8,4.2,0.8,6.4
		c0.1,11.3,0,22.5,0,33.8C138.1,430.5,138.1,432.1,138.1,434.4z"/>
	<path class="st0" d="M473.4,138.7c0,8.8,0,17.5,0,26.3c0,7-2.9,9.9-10,9.9c-17.9,0-35.7,0-53.6,0c-6.6,0-9.8-3.1-9.8-9.7
		c-0.1-18-0.1-36.1,0-54.1c0-6.4,3.1-9.6,9.4-9.6c18.2-0.1,36.4-0.1,54.6,0c6.5,0,9.3,3,9.4,9.4
		C473.5,120.2,473.4,129.4,473.4,138.7z M457.2,158.7c0-13.9,0-27.4,0-41c-13.8,0-27.2,0-40.9,0c0,13.8,0,27.2,0,41
		C430,158.7,443.5,158.7,457.2,158.7z"/>
	<path class="st0" d="M473.4,37c0,8.9,0,17.9,0,26.8c0,6.7-2.9,9.7-9.7,9.7c-18,0.1-36.1,0.1-54.1,0c-6.3,0-9.6-3.1-9.6-9.4
		c-0.1-18.4-0.1-36.7,0-55.1c0-5.7,3.3-8.9,9.1-8.9C427.5,0,445.8,0,464.2,0c6.2,0,9.1,3,9.2,9.1C473.5,18.4,473.4,27.7,473.4,37z
		 M416.2,57.2c8,0.8,37.6,0.5,41-0.3c0-13.5,0-27,0-40.5c-7.9-1-37.8-0.6-41,0.4C416.2,30.1,416.2,43.5,416.2,57.2z"/>
	<path class="st0" d="M473.4,442.2c0,9.1-0.2,18.2,0.1,27.3c0.2,5.7-3.4,9.7-9.8,9.7c-18-0.2-36.1,0-54.1-0.1
		c-6.4,0-9.5-3.1-9.6-9.4c-0.1-18-0.1-36.1,0-54.1c0-6.9,3.1-9.9,10.1-9.9c17.7,0,35.4,0,53.1,0c0.3,0,0.7,0,1,0
		c6.1,0.2,9.1,3.1,9.2,9.2C473.5,424,473.4,433.1,473.4,442.2z M416.6,421.9c-1,5.3-0.8,37.7,0.2,41.1c10.3,0.7,36.8,0.4,40.5-0.4
		c0-13.5,0-27,0-40.7C443.5,421.9,430,421.9,416.6,421.9z"/>
	<path class="st0" d="M473.4,239.5c0,8.9,0,17.9,0,26.8c0,7.1-2.8,10-9.9,10c-17.9,0-35.7,0-53.6,0c-6.7,0-9.9-3-9.9-9.6
		c-0.1-18-0.1-36.1,0-54.1c0-6.7,3.2-9.7,9.8-9.7c17.9,0,35.7,0,53.6,0c7.1,0,10,2.9,10,9.8C473.4,221.6,473.4,230.6,473.4,239.5z
		 M416.2,219.1c0,13.8,0,27.2,0,40.6c5,1,37.5,0.8,41-0.1c0-13.5,0-27,0-40.6C443.4,219.1,430,219.1,416.2,219.1z"/>
	<path class="st0" d="M473.4,341c0,8.9,0,17.9,0,26.8c0,7.1-2.9,9.9-9.9,9.9c-17.9,0-35.7,0-53.6,0c-6.7,0-9.8-3-9.9-9.6
		c-0.1-18-0.1-36.1,0-54.1c0-6.6,3.2-9.7,9.8-9.7c18,0,36.1-0.1,54.1,0c6.5,0,9.4,3,9.5,9.4C473.5,322.8,473.4,331.9,473.4,341z
		 M457.1,361.6c0.9-7.9,0.6-37.8-0.4-41.2c-14.1-0.8-36.8-0.4-40.4,0.6c-0.8,6.6-0.5,37,0.4,40.6C430,361.6,443.4,361.6,457.1,361.6
		z"/>
	<path class="st0" d="M311.1,130.2c23.4,0,46.7,0,70.1,0c1.5,0,3-0.1,4.5,0.1c4.3,0.5,7.3,3.8,7.2,8c-0.1,4.2-3.1,7.4-7.5,7.8
		c-1.2,0.1-2.3,0-3.5,0c-47.4,0-94.7,0-142.1,0c-1,0-2,0-3,0c-4.7-0.3-7.9-3.4-8-7.8c-0.1-4.4,3.1-7.7,7.7-8.1c1.3-0.1,2.6,0,4,0
		C264,130.2,287.5,130.2,311.1,130.2z"/>
	<path class="st0" d="M311,349c-23.5,0-47,0-70.6,0c-1.3,0-2.7,0.1-4,0c-4.6-0.4-7.8-3.7-7.7-8.1c0.1-4.2,3.1-7.4,7.5-7.8
		c1.2-0.1,2.3,0,3.5,0c47.4,0,94.7,0,142.1,0c1.3,0,2.7-0.1,4,0.1c4,0.5,6.9,3.8,6.9,7.8c0,4-2.8,7.3-6.8,7.9
		c-1.5,0.2-3,0.1-4.5,0.1C358.1,349,334.5,349,311,349z"/>
	<path class="st0" d="M195.3,239.6c0.6,34-27.3,65.4-65.1,65.5c-38.1,0.2-65.8-31.2-65.8-65.5c0-34.5,27.9-65.7,65.7-65.5
		C167.9,174.2,195.9,205.4,195.3,239.6z M179.3,239.7c0.7-24.9-19.8-49.6-49.4-49.6c-28.6,0-49.3,23.5-49.5,49.2
		c-0.2,25.9,20.4,49.8,49.3,49.9C159.2,289.2,179.8,264.9,179.3,239.7z"/>
</g>
</svg>
